<svg width="289" height="192" viewBox="0 0 289 192" fill="none" xmlns="http://www.w3.org/2000/svg">
<path d="M11.676 75V57.552H14.52V75H11.676ZM1.932 75V57.552H4.764V75H1.932ZM3.912 67.32V64.776H12.144L12.108 67.32H3.912ZM21.4817 75.144C20.6817 75.144 19.9737 74.996 19.3577 74.7C18.7417 74.396 18.2577 73.976 17.9057 73.44C17.5617 72.904 17.3897 72.284 17.3897 71.58C17.3897 70.804 17.5297 70.164 17.8097 69.66C18.0897 69.156 18.4937 68.756 19.0217 68.46C19.5577 68.156 20.1857 67.924 20.9057 67.764C21.4177 67.652 21.9577 67.56 22.5257 67.488C23.1017 67.416 23.6337 67.36 24.1217 67.32C24.6097 67.272 24.9857 67.24 25.2497 67.224V66.696C25.2497 65.808 25.0697 65.144 24.7097 64.704C24.3577 64.256 23.7577 64.032 22.9097 64.032C22.3657 64.032 21.9097 64.1 21.5417 64.236C21.1737 64.364 20.8937 64.612 20.7017 64.98C20.5177 65.34 20.4177 65.868 20.4017 66.564H17.8217C17.7337 65.436 17.8937 64.512 18.3017 63.792C18.7177 63.064 19.3337 62.528 20.1497 62.184C20.9737 61.832 21.9457 61.656 23.0657 61.656C23.7297 61.656 24.3537 61.732 24.9377 61.884C25.5297 62.028 26.0537 62.28 26.5097 62.64C26.9657 62.992 27.3257 63.476 27.5897 64.092C27.8537 64.708 27.9857 65.488 27.9857 66.432V75H25.2137L25.2497 72.06C25.0977 72.948 24.7137 73.684 24.0977 74.268C23.4817 74.852 22.6097 75.144 21.4817 75.144ZM22.2377 73.008C22.6537 73.008 23.0737 72.936 23.4977 72.792C23.9297 72.648 24.3057 72.44 24.6257 72.168C24.9537 71.896 25.1617 71.576 25.2497 71.208V68.808C24.9297 68.84 24.5497 68.896 24.1097 68.976C23.6777 69.056 23.3057 69.128 22.9937 69.192C22.0977 69.376 21.4497 69.62 21.0497 69.924C20.6577 70.22 20.4617 70.676 20.4617 71.292C20.4617 71.644 20.5417 71.952 20.7017 72.216C20.8697 72.472 21.0897 72.668 21.3617 72.804C21.6337 72.94 21.9257 73.008 22.2377 73.008ZM34.1488 75L29.5888 61.908H32.8048L34.4848 67.98L35.6248 72.216H35.7328L36.8728 67.992L38.5528 61.908H41.7688L37.2088 75H34.1488ZM43.8246 75V61.908H46.6926L46.6566 75H43.8246ZM45.2766 59.964C44.7566 59.964 44.3166 59.784 43.9566 59.424C43.5966 59.056 43.4166 58.588 43.4166 58.02C43.4166 57.46 43.5966 57.004 43.9566 56.652C44.3166 56.3 44.7566 56.124 45.2766 56.124C45.7806 56.124 46.2126 56.3 46.5726 56.652C46.9406 57.004 47.1246 57.46 47.1246 58.02C47.1246 58.588 46.9406 59.056 46.5726 59.424C46.2126 59.784 45.7806 59.964 45.2766 59.964ZM50.2459 75V61.908H52.6699L52.9819 66.84L52.7779 65.844C52.8739 65.124 53.0619 64.444 53.3419 63.804C53.6299 63.156 54.0579 62.632 54.6259 62.232C55.1939 61.832 55.9539 61.632 56.9059 61.632C58.1459 61.632 59.1059 62.02 59.7859 62.796C60.4659 63.564 60.8059 64.74 60.8059 66.324V75H57.9739V67.308C57.9739 66.556 57.8979 65.952 57.7459 65.496C57.6019 65.04 57.3659 64.712 57.0379 64.512C56.7099 64.304 56.2739 64.2 55.7299 64.2C55.1379 64.2 54.5979 64.376 54.1099 64.728C53.6299 65.072 53.2859 65.464 53.0779 65.904V75H50.2459ZM69.4935 80.352C68.4295 80.352 67.4695 80.176 66.6135 79.824C65.7655 79.48 65.1095 78.952 64.6455 78.24C64.1815 77.528 64.0015 76.636 64.1055 75.564H66.8415C66.8335 76.02 66.8895 76.428 67.0095 76.788C67.1295 77.156 67.3815 77.448 67.7655 77.664C68.1495 77.88 68.7335 77.988 69.5175 77.988C70.1975 77.988 70.7175 77.892 71.0775 77.7C71.4455 77.508 71.6935 77.216 71.8215 76.824C71.9495 76.432 72.0135 75.924 72.0135 75.3V71.748C71.9415 72.124 71.7855 72.52 71.5455 72.936C71.3055 73.352 70.9335 73.704 70.4295 73.992C69.9255 74.272 69.2455 74.412 68.3895 74.412C67.6135 74.412 66.9215 74.24 66.3135 73.896C65.7055 73.552 65.1895 73.088 64.7655 72.504C64.3415 71.92 64.0175 71.264 63.7935 70.536C63.5775 69.8 63.4695 69.04 63.4695 68.256C63.4695 66.8 63.7095 65.584 64.1895 64.608C64.6775 63.632 65.3055 62.896 66.0735 62.4C66.8415 61.904 67.6535 61.656 68.5095 61.656C69.2695 61.656 69.8815 61.76 70.3455 61.968C70.8175 62.176 71.1855 62.428 71.4495 62.724C71.7135 63.02 71.9055 63.312 72.0255 63.6L72.0375 61.908H74.8095V75.276C74.8095 76.46 74.5775 77.424 74.1135 78.168C73.6575 78.912 73.0295 79.456 72.2295 79.8C71.4295 80.152 70.5175 80.336 69.4935 80.352ZM69.3615 72.144C69.9615 72.144 70.4455 72.064 70.8135 71.904C71.1815 71.736 71.4615 71.54 71.6535 71.316C71.8455 71.084 71.9655 70.884 72.0135 70.716V65.232C71.9335 65.04 71.7855 64.852 71.5695 64.668C71.3535 64.484 71.0695 64.332 70.7175 64.212C70.3655 64.092 69.9335 64.032 69.4215 64.032C68.5335 64.032 67.8055 64.36 67.2375 65.016C66.6695 65.672 66.3855 66.7 66.3855 68.1C66.3855 69.372 66.6655 70.364 67.2255 71.076C67.7935 71.788 68.5055 72.144 69.3615 72.144ZM86.5736 75.192C85.5336 75.192 84.7216 74.928 84.1376 74.4C83.5616 73.864 83.2736 73.1 83.2736 72.108V65.484C83.2736 65.22 83.3296 64.984 83.4416 64.776C83.5536 64.56 83.7176 64.424 83.9336 64.368L83.2736 62.424V62.076L83.9096 58.152H86.0696V71.4C86.0696 71.864 86.1696 72.188 86.3696 72.372C86.5776 72.556 86.9616 72.648 87.5216 72.648C87.8816 72.648 88.2136 72.648 88.5176 72.648C88.8216 72.64 89.0976 72.632 89.3456 72.624V75.036C88.9296 75.108 88.4736 75.152 87.9776 75.168C87.4816 75.184 87.0136 75.192 86.5736 75.192ZM81.5576 64.368V61.908H89.3696V64.368H81.5576ZM92.0115 75V61.908H94.4355L94.7475 66.948L94.4955 66.252C94.5515 65.724 94.6555 65.188 94.8075 64.644C94.9675 64.1 95.1915 63.6 95.4795 63.144C95.7755 62.688 96.1515 62.324 96.6075 62.052C97.0715 61.772 97.6355 61.632 98.2995 61.632C98.4595 61.632 98.6195 61.64 98.7795 61.656C98.9395 61.672 99.0875 61.7 99.2235 61.74V64.764C98.9515 64.676 98.6595 64.62 98.3475 64.596C98.0435 64.564 97.7635 64.548 97.5075 64.548C97.1955 64.548 96.8595 64.612 96.4995 64.74C96.1395 64.86 95.8075 65.044 95.5035 65.292C95.1995 65.54 94.9795 65.848 94.8435 66.216V75H92.0115ZM106.276 75.18C105.068 75.18 104.016 74.92 103.12 74.4C102.224 73.88 101.528 73.116 101.032 72.108C100.536 71.092 100.288 69.848 100.288 68.376C100.288 66.984 100.548 65.784 101.068 64.776C101.596 63.768 102.316 62.996 103.228 62.46C104.14 61.916 105.172 61.644 106.324 61.644C107.572 61.644 108.64 61.916 109.528 62.46C110.424 62.996 111.112 63.768 111.592 64.776C112.072 65.784 112.312 66.984 112.312 68.376C112.312 69.848 112.044 71.092 111.508 72.108C110.98 73.116 110.26 73.88 109.348 74.4C108.436 74.92 107.412 75.18 106.276 75.18ZM106.324 72.768C107.244 72.768 107.996 72.424 108.58 71.736C109.164 71.048 109.456 69.928 109.456 68.376C109.456 66.936 109.172 65.856 108.604 65.136C108.036 64.416 107.26 64.056 106.276 64.056C105.356 64.056 104.604 64.412 104.02 65.124C103.444 65.836 103.156 66.92 103.156 68.376C103.156 69.856 103.448 70.96 104.032 71.688C104.624 72.408 105.388 72.768 106.324 72.768ZM118.722 75.264C117.586 75.264 116.674 74.868 115.986 74.076C115.298 73.284 114.954 72.148 114.954 70.668V61.896H117.786V69.912C117.786 70.552 117.858 71.08 118.002 71.496C118.146 71.912 118.374 72.216 118.686 72.408C118.998 72.6 119.402 72.696 119.898 72.696C120.498 72.696 121.038 72.524 121.518 72.18C122.006 71.828 122.35 71.432 122.55 70.992V61.896H125.382V75H122.97L122.646 70.056L122.862 71.052C122.766 71.772 122.574 72.452 122.286 73.092C122.006 73.732 121.578 74.256 121.002 74.664C120.434 75.064 119.674 75.264 118.722 75.264ZM135.272 75.144C134.408 75.144 133.72 75 133.208 74.712C132.696 74.424 132.32 74.088 132.08 73.704C131.84 73.312 131.688 72.968 131.624 72.672L131 72.108L131.78 71.772C131.836 71.972 131.96 72.168 132.152 72.36C132.352 72.544 132.632 72.696 132.992 72.816C133.36 72.928 133.812 72.984 134.348 72.984C135.244 72.984 135.984 72.636 136.568 71.94C137.152 71.244 137.444 70.088 137.444 68.472C137.444 67.016 137.168 65.92 136.616 65.184C136.072 64.44 135.376 64.068 134.528 64.068C133.928 64.068 133.432 64.152 133.04 64.32C132.656 64.488 132.364 64.684 132.164 64.908C131.964 65.132 131.836 65.332 131.78 65.508L131.6 65.34L131.792 64.884C131.832 64.276 131.984 63.732 132.248 63.252C132.52 62.764 132.92 62.376 133.448 62.088C133.984 61.8 134.66 61.656 135.476 61.656C136.532 61.656 137.42 61.94 138.14 62.508C138.86 63.068 139.404 63.84 139.772 64.824C140.148 65.8 140.336 66.928 140.336 68.208C140.336 69.368 140.192 70.384 139.904 71.256C139.624 72.12 139.24 72.84 138.752 73.416C138.272 73.992 137.732 74.424 137.132 74.712C136.532 75 135.912 75.144 135.272 75.144ZM128.984 75L128.972 56.328H131.792V62.268L131.804 72.048L132.008 72.504L131.78 72.972L131.66 75H128.984ZM143.082 75V56.328H145.914V75H143.082ZM154.781 75.18C153.517 75.18 152.421 74.924 151.493 74.412C150.573 73.892 149.865 73.128 149.369 72.12C148.873 71.112 148.625 69.876 148.625 68.412C148.625 66.988 148.885 65.772 149.405 64.764C149.933 63.748 150.657 62.976 151.577 62.448C152.497 61.912 153.553 61.644 154.745 61.644C155.921 61.644 156.925 61.876 157.757 62.34C158.597 62.804 159.237 63.492 159.677 64.404C160.117 65.308 160.337 66.42 160.337 67.74C160.337 67.996 160.329 68.208 160.313 68.376C160.305 68.544 160.293 68.744 160.277 68.976H151.445C151.517 70.312 151.845 71.296 152.429 71.928C153.013 72.552 153.729 72.864 154.577 72.864C155.369 72.864 155.973 72.696 156.389 72.36C156.813 72.016 157.085 71.632 157.205 71.208H159.941C159.869 72.048 159.605 72.768 159.149 73.368C158.693 73.96 158.089 74.412 157.337 74.724C156.593 75.028 155.741 75.18 154.781 75.18ZM152.741 67.044H157.517C157.493 66.084 157.261 65.344 156.821 64.824C156.381 64.296 155.657 64.032 154.649 64.032C153.601 64.032 152.821 64.384 152.309 65.088C151.797 65.784 151.509 66.748 151.445 67.98C151.509 67.62 151.645 67.376 151.853 67.248C152.061 67.112 152.357 67.044 152.741 67.044ZM165.491 69.732C165.427 69.612 165.379 69.448 165.347 69.24C165.315 69.024 165.299 68.752 165.299 68.424C165.299 67.704 165.443 67.112 165.731 66.648C166.027 66.184 166.391 65.792 166.823 65.472C167.263 65.152 167.695 64.84 168.119 64.536C168.551 64.224 168.911 63.868 169.199 63.468C169.495 63.068 169.643 62.556 169.643 61.932C169.643 61.284 169.439 60.768 169.031 60.384C168.631 60 167.979 59.808 167.075 59.808C166.091 59.808 165.407 60.076 165.023 60.612C164.647 61.148 164.467 61.968 164.483 63.072L161.867 63.06C161.763 62.06 161.859 61.116 162.155 60.228C162.459 59.332 163.011 58.608 163.811 58.056C164.619 57.496 165.719 57.216 167.111 57.216C168.391 57.216 169.419 57.452 170.195 57.924C170.971 58.388 171.531 58.988 171.875 59.724C172.227 60.452 172.403 61.212 172.403 62.004C172.403 62.852 172.251 63.552 171.947 64.104C171.643 64.648 171.263 65.104 170.807 65.472C170.359 65.832 169.907 66.164 169.451 66.468C168.995 66.764 168.615 67.088 168.311 67.44C168.007 67.792 167.855 68.236 167.855 68.772C167.855 68.916 167.859 69.08 167.867 69.264C167.875 69.448 167.903 69.604 167.951 69.732H165.491ZM166.979 75.18C166.483 75.18 166.063 75.012 165.719 74.676C165.375 74.332 165.203 73.888 165.203 73.344C165.203 72.8 165.375 72.356 165.719 72.012C166.063 71.668 166.487 71.496 166.991 71.496C167.487 71.496 167.903 71.668 168.239 72.012C168.583 72.356 168.755 72.796 168.755 73.332C168.755 73.884 168.579 74.332 168.227 74.676C167.883 75.012 167.467 75.18 166.979 75.18Z" fill="#1F4451"/>
<path d="M1.36 106V94.368H8.024V95.768H2.224L2.848 95.048V99.872L2.256 99.44H7.528V100.808H2.616L2.848 100.384V106H1.36ZM12.8664 106.12C12.0717 106.12 11.373 105.947 10.7704 105.6C10.173 105.253 9.70904 104.744 9.37838 104.072C9.04771 103.395 8.88238 102.568 8.88238 101.592C8.88238 100.653 9.05304 99.848 9.39438 99.176C9.73571 98.504 10.205 97.9893 10.8024 97.632C11.3997 97.2747 12.0797 97.096 12.8424 97.096C13.5997 97.096 14.2477 97.2587 14.7864 97.584C15.3304 97.9093 15.749 98.376 16.0424 98.984C16.3357 99.5867 16.4797 100.309 16.4744 101.152C16.4744 101.323 16.469 101.464 16.4584 101.576C16.4477 101.688 16.4397 101.805 16.4344 101.928H10.3704C10.4077 102.888 10.6477 103.616 11.0904 104.112C11.5384 104.603 12.109 104.848 12.8024 104.848C13.389 104.848 13.8424 104.725 14.1624 104.48C14.4877 104.229 14.693 103.909 14.7784 103.52H16.2344C16.197 104.075 16.0264 104.547 15.7224 104.936C15.4237 105.325 15.029 105.621 14.5384 105.824C14.0477 106.021 13.4904 106.12 12.8664 106.12ZM11.1624 100.808H14.9784C14.9677 100.061 14.7837 99.4747 14.4264 99.048C14.069 98.6213 13.5224 98.408 12.7864 98.408C12.013 98.408 11.4264 98.672 11.0264 99.2C10.6264 99.7227 10.4077 100.445 10.3704 101.368C10.413 101.149 10.4984 101.003 10.6264 100.928C10.7597 100.848 10.9384 100.808 11.1624 100.808ZM21.8508 106.12C21.0561 106.12 20.3574 105.947 19.7548 105.6C19.1574 105.253 18.6934 104.744 18.3628 104.072C18.0321 103.395 17.8668 102.568 17.8668 101.592C17.8668 100.653 18.0374 99.848 18.3788 99.176C18.7201 98.504 19.1894 97.9893 19.7868 97.632C20.3841 97.2747 21.0641 97.096 21.8268 97.096C22.5841 97.096 23.2321 97.2587 23.7708 97.584C24.3148 97.9093 24.7334 98.376 25.0268 98.984C25.3201 99.5867 25.4641 100.309 25.4588 101.152C25.4588 101.323 25.4534 101.464 25.4427 101.576C25.4321 101.688 25.4241 101.805 25.4188 101.928H19.3548C19.3921 102.888 19.6321 103.616 20.0748 104.112C20.5228 104.603 21.0934 104.848 21.7868 104.848C22.3734 104.848 22.8268 104.725 23.1468 104.48C23.4721 104.229 23.6774 103.909 23.7628 103.52H25.2188C25.1814 104.075 25.0108 104.547 24.7068 104.936C24.4081 105.325 24.0134 105.621 23.5228 105.824C23.0321 106.021 22.4748 106.12 21.8508 106.12ZM20.1468 100.808H23.9628C23.9521 100.061 23.7681 99.4747 23.4108 99.048C23.0534 98.6213 22.5068 98.408 21.7708 98.408C20.9974 98.408 20.4108 98.672 20.0108 99.2C19.6108 99.7227 19.3921 100.445 19.3548 101.368C19.3974 101.149 19.4828 101.003 19.6108 100.928C19.7441 100.848 19.9228 100.808 20.1468 100.808ZM27.3905 106V93.56H28.8785V106H27.3905ZM34.9341 106V99.376C34.9341 99.2053 34.9688 99.0453 35.0381 98.896C35.1075 98.7467 35.2088 98.6507 35.3421 98.608L34.9341 97.624V96.232C34.9341 95.5493 35.0648 94.984 35.3261 94.536C35.5928 94.0827 35.9475 93.7467 36.3901 93.528C36.8381 93.304 37.3368 93.192 37.8861 93.192C38.1528 93.192 38.3741 93.2 38.5501 93.216C38.7261 93.232 38.8781 93.248 39.0061 93.264V94.704C38.8888 94.656 38.7448 94.6213 38.5741 94.6C38.4088 94.5787 38.2008 94.568 37.9501 94.568C37.6248 94.568 37.3448 94.624 37.1101 94.736C36.8808 94.8427 36.7048 95.0347 36.5821 95.312C36.4595 95.584 36.3981 95.9707 36.3981 96.472V106H34.9341ZM33.5501 98.608V97.272H38.4861V98.608H33.5501ZM40.0151 106V97.272H41.2791L41.4391 100.624L41.2631 100.168C41.3005 99.8373 41.3725 99.4933 41.4791 99.136C41.5911 98.7787 41.7485 98.4453 41.9511 98.136C42.1591 97.8213 42.4231 97.568 42.7431 97.376C43.0685 97.184 43.4658 97.088 43.9351 97.088C44.0258 97.088 44.1111 97.0933 44.1911 97.104C44.2765 97.1147 44.3591 97.128 44.4391 97.144V98.72C44.3058 98.6773 44.1645 98.6507 44.0151 98.64C43.8711 98.624 43.7351 98.616 43.6071 98.616C43.3458 98.616 43.0818 98.6667 42.8151 98.768C42.5485 98.8693 42.3005 99.032 42.0711 99.256C41.8418 99.4747 41.6525 99.76 41.5031 100.112V106H40.0151ZM49.3508 106.12C48.5561 106.12 47.8574 105.947 47.2548 105.6C46.6574 105.253 46.1934 104.744 45.8628 104.072C45.5321 103.395 45.3668 102.568 45.3668 101.592C45.3668 100.653 45.5374 99.848 45.8788 99.176C46.2201 98.504 46.6894 97.9893 47.2868 97.632C47.8841 97.2747 48.5641 97.096 49.3268 97.096C50.0841 97.096 50.7321 97.2587 51.2708 97.584C51.8148 97.9093 52.2334 98.376 52.5268 98.984C52.8201 99.5867 52.9641 100.309 52.9588 101.152C52.9588 101.323 52.9534 101.464 52.9427 101.576C52.9321 101.688 52.9241 101.805 52.9188 101.928H46.8548C46.8921 102.888 47.1321 103.616 47.5748 104.112C48.0228 104.603 48.5934 104.848 49.2868 104.848C49.8734 104.848 50.3268 104.725 50.6468 104.48C50.9721 104.229 51.1774 103.909 51.2628 103.52H52.7188C52.6814 104.075 52.5108 104.547 52.2068 104.936C51.9081 105.325 51.5134 105.621 51.0228 105.824C50.5321 106.021 49.9748 106.12 49.3508 106.12ZM47.6468 100.808H51.4628C51.4521 100.061 51.2681 99.4747 50.9108 99.048C50.5534 98.6213 50.0068 98.408 49.2708 98.408C48.4974 98.408 47.9108 98.672 47.5108 99.2C47.1108 99.7227 46.8921 100.445 46.8548 101.368C46.8974 101.149 46.9828 101.003 47.1108 100.928C47.2441 100.848 47.4228 100.808 47.6468 100.808ZM58.3351 106.12C57.5405 106.12 56.8418 105.947 56.2391 105.6C55.6418 105.253 55.1778 104.744 54.8471 104.072C54.5165 103.395 54.3511 102.568 54.3511 101.592C54.3511 100.653 54.5218 99.848 54.8631 99.176C55.2045 98.504 55.6738 97.9893 56.2711 97.632C56.8685 97.2747 57.5485 97.096 58.3111 97.096C59.0685 97.096 59.7165 97.2587 60.2551 97.584C60.7991 97.9093 61.2178 98.376 61.5111 98.984C61.8045 99.5867 61.9485 100.309 61.9431 101.152C61.9431 101.323 61.9378 101.464 61.9271 101.576C61.9165 101.688 61.9085 101.805 61.9031 101.928H55.8391C55.8765 102.888 56.1165 103.616 56.5591 104.112C57.0071 104.603 57.5778 104.848 58.2711 104.848C58.8578 104.848 59.3111 104.725 59.6311 104.48C59.9565 104.229 60.1618 103.909 60.2471 103.52H61.7031C61.6658 104.075 61.4951 104.547 61.1911 104.936C60.8925 105.325 60.4978 105.621 60.0071 105.824C59.5165 106.021 58.9591 106.12 58.3351 106.12ZM56.6311 100.808H60.4471C60.4365 100.061 60.2525 99.4747 59.8951 99.048C59.5378 98.6213 58.9911 98.408 58.2551 98.408C57.4818 98.408 56.8951 98.672 56.4951 99.2C56.0951 99.7227 55.8765 100.445 55.8391 101.368C55.8818 101.149 55.9671 101.003 56.0951 100.928C56.2285 100.848 56.4071 100.808 56.6311 100.808ZM69.2706 106.12C68.5933 106.12 68.076 105.947 67.7186 105.6C67.3666 105.248 67.1906 104.749 67.1906 104.104V99.368C67.1906 99.1973 67.2253 99.04 67.2946 98.896C67.364 98.7467 67.4653 98.6507 67.5986 98.608L67.1906 97.616V97.344L67.5506 94.736H68.6626V103.856C68.6626 104.197 68.7426 104.429 68.9026 104.552C69.0626 104.669 69.3373 104.728 69.7266 104.728C70.0093 104.728 70.2493 104.728 70.4466 104.728C70.644 104.723 70.8493 104.712 71.0626 104.696V106.008C70.7693 106.061 70.4653 106.093 70.1506 106.104C69.8413 106.115 69.548 106.12 69.2706 106.12ZM65.9186 98.608V97.272H70.9906V98.608H65.9186ZM75.9194 106.12C75.1514 106.12 74.4767 105.947 73.8954 105.6C73.3194 105.253 72.8687 104.744 72.5434 104.072C72.2234 103.395 72.0634 102.565 72.0634 101.584C72.0634 100.656 72.234 99.856 72.5754 99.184C72.9167 98.512 73.3807 97.9973 73.9674 97.64C74.5594 97.2773 75.2207 97.096 75.9514 97.096C76.746 97.096 77.4314 97.2773 78.0074 97.64C78.5887 97.9973 79.0367 98.512 79.3514 99.184C79.666 99.856 79.8234 100.656 79.8234 101.584C79.8234 102.565 79.6474 103.395 79.2954 104.072C78.9487 104.744 78.4794 105.253 77.8874 105.6C77.2954 105.947 76.6394 106.12 75.9194 106.12ZM75.9514 104.808C76.666 104.808 77.2367 104.541 77.6634 104.008C78.09 103.475 78.3034 102.667 78.3034 101.584C78.3034 100.549 78.0927 99.7627 77.6714 99.224C77.2554 98.68 76.6714 98.408 75.9194 98.408C75.21 98.408 74.642 98.68 74.2154 99.224C73.794 99.7627 73.5834 100.549 73.5834 101.584C73.5834 102.629 73.7967 103.429 74.2234 103.984C74.6554 104.533 75.2314 104.808 75.9514 104.808ZM88.0943 106.144C87.2836 106.144 86.5796 105.96 85.9823 105.592C85.3849 105.224 84.9236 104.701 84.5983 104.024C84.2729 103.347 84.1103 102.549 84.1103 101.632C84.1103 100.667 84.2756 99.848 84.6063 99.176C84.9423 98.504 85.4036 97.992 85.9903 97.64C86.5823 97.2827 87.2569 97.104 88.0143 97.104C88.7396 97.104 89.3556 97.2453 89.8623 97.528C90.3689 97.8053 90.7556 98.176 91.0223 98.64C91.2943 99.104 91.4383 99.616 91.4543 100.176H89.9903C89.9796 99.9627 89.9343 99.752 89.8543 99.544C89.7743 99.336 89.6543 99.1493 89.4943 98.984C89.3343 98.8133 89.1289 98.6773 88.8783 98.576C88.6329 98.4693 88.3369 98.416 87.9903 98.416C87.1849 98.4107 86.5903 98.6907 86.2063 99.256C85.8223 99.8213 85.6303 100.597 85.6303 101.584C85.6303 102.64 85.8436 103.445 86.2703 104C86.6969 104.555 87.3369 104.832 88.1903 104.832C88.5209 104.832 88.8169 104.757 89.0783 104.608C89.3396 104.459 89.5476 104.264 89.7023 104.024C89.8623 103.784 89.9476 103.528 89.9583 103.256H91.4223C91.4063 103.805 91.2516 104.299 90.9583 104.736C90.6649 105.173 90.2703 105.517 89.7743 105.768C89.2783 106.019 88.7183 106.144 88.0943 106.144ZM96.6069 106.12C95.8389 106.12 95.1642 105.947 94.5829 105.6C94.0069 105.253 93.5562 104.744 93.2309 104.072C92.9109 103.395 92.7509 102.565 92.7509 101.584C92.7509 100.656 92.9215 99.856 93.2629 99.184C93.6042 98.512 94.0682 97.9973 94.6549 97.64C95.2469 97.2773 95.9082 97.096 96.6389 97.096C97.4335 97.096 98.1189 97.2773 98.6949 97.64C99.2762 97.9973 99.7242 98.512 100.039 99.184C100.354 99.856 100.511 100.656 100.511 101.584C100.511 102.565 100.335 103.395 99.9829 104.072C99.6362 104.744 99.1669 105.253 98.5749 105.6C97.9829 105.947 97.3269 106.12 96.6069 106.12ZM96.6389 104.808C97.3535 104.808 97.9242 104.541 98.3509 104.008C98.7775 103.475 98.9909 102.667 98.9909 101.584C98.9909 100.549 98.7802 99.7627 98.3589 99.224C97.9429 98.68 97.3589 98.408 96.6069 98.408C95.8975 98.408 95.3295 98.68 94.9029 99.224C94.4815 99.7627 94.2709 100.549 94.2709 101.584C94.2709 102.629 94.4842 103.429 94.9109 103.984C95.3429 104.533 95.9189 104.808 96.6389 104.808ZM102.531 106V97.272H103.795L103.955 100.56L103.811 99.896C103.88 99.3787 104.024 98.9093 104.243 98.488C104.467 98.0613 104.779 97.7227 105.179 97.472C105.584 97.216 106.093 97.088 106.707 97.088C107.517 97.088 108.147 97.3387 108.595 97.84C109.048 98.336 109.275 99.0773 109.275 100.064V106H107.787V100.552C107.787 100.056 107.731 99.656 107.619 99.352C107.512 99.048 107.339 98.8267 107.099 98.688C106.864 98.5493 106.549 98.48 106.155 98.48C105.68 98.48 105.261 98.6107 104.899 98.872C104.541 99.1333 104.248 99.4933 104.019 99.952V106H102.531ZM114.114 106.12C113.437 106.12 112.92 105.947 112.562 105.6C112.21 105.248 112.034 104.749 112.034 104.104V99.368C112.034 99.1973 112.069 99.04 112.138 98.896C112.208 98.7467 112.309 98.6507 112.442 98.608L112.034 97.616V97.344L112.394 94.736H113.506V103.856C113.506 104.197 113.586 104.429 113.746 104.552C113.906 104.669 114.181 104.728 114.57 104.728C114.853 104.728 115.093 104.728 115.29 104.728C115.488 104.723 115.693 104.712 115.906 104.696V106.008C115.613 106.061 115.309 106.093 114.994 106.104C114.685 106.115 114.392 106.12 114.114 106.12ZM110.762 98.608V97.272H115.834V98.608H110.762ZM119.894 106.096C119.339 106.096 118.859 105.992 118.454 105.784C118.054 105.571 117.744 105.283 117.526 104.92C117.312 104.557 117.206 104.147 117.206 103.688C117.206 103.213 117.299 102.813 117.486 102.488C117.672 102.157 117.942 101.888 118.294 101.68C118.646 101.467 119.072 101.307 119.574 101.2C119.904 101.125 120.254 101.067 120.622 101.024C120.995 100.981 121.352 100.947 121.694 100.92C122.035 100.893 122.326 100.875 122.566 100.864V100.376C122.566 99.6773 122.419 99.176 122.126 98.872C121.832 98.5627 121.376 98.408 120.758 98.408C120.374 98.408 120.035 98.4587 119.742 98.56C119.454 98.6613 119.23 98.8507 119.07 99.128C118.91 99.4 118.832 99.8 118.838 100.328H117.446C117.382 99.608 117.483 99.0107 117.75 98.536C118.016 98.056 118.416 97.6987 118.95 97.464C119.483 97.224 120.115 97.104 120.845 97.104C121.262 97.104 121.659 97.1547 122.038 97.256C122.416 97.352 122.752 97.5173 123.046 97.752C123.339 97.9813 123.571 98.296 123.742 98.696C123.912 99.096 123.998 99.5973 123.998 100.2V106H122.55L122.566 104.104C122.432 104.707 122.131 105.189 121.662 105.552C121.198 105.915 120.608 106.096 119.894 106.096ZM120.238 104.92C120.627 104.92 120.984 104.848 121.31 104.704C121.64 104.56 121.918 104.376 122.142 104.152C122.366 103.928 122.507 103.699 122.566 103.464V101.768C122.256 101.789 121.912 101.827 121.534 101.88C121.155 101.928 120.822 101.987 120.534 102.056C119.958 102.189 119.528 102.368 119.246 102.592C118.968 102.816 118.83 103.139 118.83 103.56C118.83 103.811 118.883 104.04 118.99 104.248C119.102 104.451 119.262 104.613 119.47 104.736C119.678 104.853 119.934 104.915 120.238 104.92ZM129.86 106.144C129.049 106.144 128.345 105.96 127.748 105.592C127.151 105.224 126.689 104.701 126.364 104.024C126.039 103.347 125.876 102.549 125.876 101.632C125.876 100.667 126.041 99.848 126.372 99.176C126.708 98.504 127.169 97.992 127.756 97.64C128.348 97.2827 129.023 97.104 129.78 97.104C130.505 97.104 131.121 97.2453 131.628 97.528C132.135 97.8053 132.521 98.176 132.788 98.64C133.06 99.104 133.204 99.616 133.22 100.176H131.756C131.745 99.9627 131.7 99.752 131.62 99.544C131.54 99.336 131.42 99.1493 131.26 98.984C131.1 98.8133 130.895 98.6773 130.644 98.576C130.399 98.4693 130.103 98.416 129.756 98.416C128.951 98.4107 128.356 98.6907 127.972 99.256C127.588 99.8213 127.396 100.597 127.396 101.584C127.396 102.64 127.609 103.445 128.036 104C128.463 104.555 129.103 104.832 129.956 104.832C130.287 104.832 130.583 104.757 130.844 104.608C131.105 104.459 131.313 104.264 131.468 104.024C131.628 103.784 131.713 103.528 131.724 103.256H133.188C133.172 103.805 133.017 104.299 132.724 104.736C132.431 105.173 132.036 105.517 131.54 105.768C131.044 106.019 130.484 106.144 129.86 106.144ZM137.693 106.12C137.015 106.12 136.498 105.947 136.141 105.6C135.789 105.248 135.613 104.749 135.613 104.104V99.368C135.613 99.1973 135.647 99.04 135.717 98.896C135.786 98.7467 135.887 98.6507 136.021 98.608L135.613 97.616V97.344L135.973 94.736H137.085V103.856C137.085 104.197 137.165 104.429 137.325 104.552C137.485 104.669 137.759 104.728 138.149 104.728C138.431 104.728 138.671 104.728 138.869 104.728C139.066 104.723 139.271 104.712 139.485 104.696V106.008C139.191 106.061 138.887 106.093 138.573 106.104C138.263 106.115 137.97 106.12 137.693 106.12ZM134.34 98.608V97.272H139.413V98.608H134.34ZM146.627 106.176C145.875 106.176 145.269 105.92 144.811 105.408C144.352 104.896 144.123 104.181 144.123 103.264V97.272H145.611V102.864C145.611 103.301 145.661 103.661 145.763 103.944C145.864 104.227 146.024 104.437 146.243 104.576C146.467 104.709 146.755 104.779 147.107 104.784C147.587 104.784 148.003 104.656 148.355 104.4C148.712 104.139 149.008 103.779 149.243 103.32V97.272H150.723V106H149.459L149.291 102.968L149.451 103.368C149.381 103.88 149.235 104.349 149.011 104.776C148.792 105.197 148.485 105.536 148.091 105.792C147.701 106.048 147.213 106.176 146.627 106.176ZM155.979 106.136C155.376 106.136 154.824 106.045 154.323 105.864C153.827 105.677 153.424 105.389 153.115 105C152.805 104.605 152.632 104.099 152.595 103.48H154.067C154.163 104.013 154.373 104.381 154.699 104.584C155.029 104.781 155.448 104.88 155.955 104.88C156.301 104.88 156.613 104.843 156.891 104.768C157.173 104.693 157.397 104.568 157.563 104.392C157.728 104.216 157.811 103.976 157.811 103.672C157.811 103.437 157.76 103.248 157.659 103.104C157.557 102.96 157.416 102.843 157.235 102.752C157.053 102.656 156.84 102.573 156.595 102.504C156.355 102.435 156.093 102.36 155.811 102.28C155.283 102.125 154.795 101.947 154.347 101.744C153.899 101.536 153.539 101.259 153.267 100.912C152.995 100.565 152.859 100.101 152.859 99.52C152.859 98.8053 153.131 98.2267 153.675 97.784C154.219 97.336 154.933 97.112 155.819 97.112C156.379 97.112 156.883 97.1973 157.331 97.368C157.784 97.5387 158.152 97.8133 158.435 98.192C158.723 98.5653 158.899 99.0667 158.963 99.696H157.499C157.445 99.408 157.347 99.1653 157.203 98.968C157.064 98.7707 156.88 98.6213 156.651 98.52C156.421 98.4187 156.141 98.368 155.811 98.368C155.533 98.368 155.283 98.408 155.059 98.488C154.835 98.5627 154.656 98.6827 154.523 98.848C154.389 99.0133 154.323 99.232 154.323 99.504C154.323 99.8027 154.403 100.043 154.563 100.224C154.723 100.405 154.949 100.557 155.243 100.68C155.536 100.797 155.88 100.915 156.275 101.032C156.579 101.128 156.904 101.229 157.251 101.336C157.597 101.437 157.923 101.573 158.227 101.744C158.536 101.915 158.787 102.144 158.979 102.432C159.176 102.715 159.275 103.085 159.275 103.544C159.275 104.365 158.971 105.003 158.363 105.456C157.755 105.909 156.96 106.136 155.979 106.136ZM166.284 106.096C165.729 106.096 165.249 105.992 164.844 105.784C164.444 105.571 164.135 105.283 163.916 104.92C163.703 104.557 163.596 104.147 163.596 103.688C163.596 103.213 163.689 102.813 163.876 102.488C164.063 102.157 164.332 101.888 164.684 101.68C165.036 101.467 165.463 101.307 165.964 101.2C166.295 101.125 166.644 101.067 167.012 101.024C167.385 100.981 167.743 100.947 168.084 100.92C168.425 100.893 168.716 100.875 168.956 100.864V100.376C168.956 99.6773 168.809 99.176 168.516 98.872C168.223 98.5627 167.767 98.408 167.148 98.408C166.764 98.408 166.425 98.4587 166.132 98.56C165.844 98.6613 165.62 98.8507 165.46 99.128C165.3 99.4 165.223 99.8 165.228 100.328H163.836C163.772 99.608 163.873 99.0107 164.14 98.536C164.407 98.056 164.807 97.6987 165.34 97.464C165.873 97.224 166.505 97.104 167.236 97.104C167.652 97.104 168.049 97.1547 168.428 97.256C168.807 97.352 169.143 97.5173 169.436 97.752C169.729 97.9813 169.961 98.296 170.132 98.696C170.303 99.096 170.388 99.5973 170.388 100.2V106H168.94L168.956 104.104C168.823 104.707 168.521 105.189 168.052 105.552C167.588 105.915 166.999 106.096 166.284 106.096ZM166.628 104.92C167.017 104.92 167.375 104.848 167.7 104.704C168.031 104.56 168.308 104.376 168.532 104.152C168.756 103.928 168.897 103.699 168.956 103.464V101.768C168.647 101.789 168.303 101.827 167.924 101.88C167.545 101.928 167.212 101.987 166.924 102.056C166.348 102.189 165.919 102.368 165.636 102.592C165.359 102.816 165.22 103.139 165.22 103.56C165.22 103.811 165.273 104.04 165.38 104.248C165.492 104.451 165.652 104.613 165.86 104.736C166.068 104.853 166.324 104.915 166.628 104.92ZM172.906 106V97.272H174.17L174.33 100.56L174.186 99.896C174.255 99.3787 174.399 98.9093 174.618 98.488C174.842 98.0613 175.154 97.7227 175.554 97.472C175.959 97.216 176.468 97.088 177.082 97.088C177.892 97.088 178.522 97.3387 178.97 97.84C179.423 98.336 179.65 99.0773 179.65 100.064V106H178.162V100.552C178.162 100.056 178.106 99.656 177.994 99.352C177.887 99.048 177.714 98.8267 177.474 98.688C177.239 98.5493 176.924 98.48 176.53 98.48C176.055 98.48 175.636 98.6107 175.274 98.872C174.916 99.1333 174.623 99.4933 174.394 99.952V106H172.906ZM185.043 106.096C184.334 106.096 183.72 105.909 183.203 105.536C182.691 105.163 182.296 104.637 182.019 103.96C181.747 103.283 181.611 102.491 181.611 101.584C181.611 100.581 181.779 99.7493 182.115 99.088C182.456 98.4213 182.894 97.9253 183.427 97.6C183.966 97.2693 184.534 97.104 185.131 97.104C185.712 97.104 186.168 97.2027 186.499 97.4C186.835 97.5973 187.08 97.8267 187.235 98.088C187.395 98.344 187.491 98.5653 187.523 98.752L187.995 98.832L187.419 99.336C187.382 99.224 187.291 99.096 187.147 98.952C187.003 98.8027 186.798 98.6747 186.531 98.568C186.264 98.456 185.926 98.4 185.515 98.4C184.827 98.4 184.259 98.6587 183.811 99.176C183.363 99.688 183.139 100.501 183.139 101.616C183.139 102.651 183.35 103.445 183.771 104C184.198 104.555 184.744 104.832 185.411 104.832C185.827 104.832 186.171 104.76 186.443 104.616C186.72 104.472 186.936 104.296 187.091 104.088C187.251 103.88 187.36 103.685 187.419 103.504L187.499 103.792L187.419 104.088C187.392 104.264 187.334 104.467 187.243 104.696C187.152 104.92 187.016 105.139 186.835 105.352C186.654 105.565 186.416 105.744 186.123 105.888C185.835 106.027 185.475 106.096 185.043 106.096ZM187.427 106L187.419 93.552H188.899L188.907 106H187.427ZM196.013 106L193.293 97.272H194.957L196.093 101.48L196.837 104.704H196.917L197.517 101.512L198.589 97.272H200.469L201.517 101.52L202.125 104.768L202.205 104.76L202.965 101.488L204.101 97.272H205.757L203.045 106H201.285L200.149 101.648L199.581 98.928H199.485L198.901 101.656L197.773 106H196.013ZM210.616 106.12C209.822 106.12 209.123 105.947 208.52 105.6C207.923 105.253 207.459 104.744 207.128 104.072C206.798 103.395 206.632 102.568 206.632 101.592C206.632 100.653 206.803 99.848 207.144 99.176C207.486 98.504 207.955 97.9893 208.552 97.632C209.15 97.2747 209.83 97.096 210.592 97.096C211.35 97.096 211.998 97.2587 212.536 97.584C213.08 97.9093 213.499 98.376 213.792 98.984C214.086 99.5867 214.23 100.309 214.224 101.152C214.224 101.323 214.219 101.464 214.208 101.576C214.198 101.688 214.19 101.805 214.184 101.928H208.12C208.158 102.888 208.398 103.616 208.84 104.112C209.288 104.603 209.859 104.848 210.552 104.848C211.139 104.848 211.592 104.725 211.912 104.48C212.238 104.229 212.443 103.909 212.528 103.52H213.984C213.947 104.075 213.776 104.547 213.472 104.936C213.174 105.325 212.779 105.621 212.288 105.824C211.798 106.021 211.24 106.12 210.616 106.12ZM208.912 100.808H212.728C212.718 100.061 212.534 99.4747 212.176 99.048C211.819 98.6213 211.272 98.408 210.536 98.408C209.763 98.408 209.176 98.672 208.776 99.2C208.376 99.7227 208.158 100.445 208.12 101.368C208.163 101.149 208.248 101.003 208.376 100.928C208.51 100.848 208.688 100.808 208.912 100.808ZM220.576 106L217.856 97.272H219.52L220.656 101.48L221.4 104.704H221.48L222.08 101.512L223.152 97.272H225.032L226.08 101.52L226.688 104.768L226.768 104.76L227.528 101.488L228.664 97.272H230.32L227.608 106H225.848L224.712 101.648L224.144 98.928H224.048L223.464 101.656L222.336 106H220.576ZM231.917 106V97.32H233.421L233.397 106H231.917ZM232.677 95.92C232.383 95.92 232.133 95.8187 231.925 95.616C231.722 95.4133 231.621 95.152 231.621 94.832C231.621 94.5173 231.722 94.2587 231.925 94.056C232.133 93.8533 232.383 93.752 232.677 93.752C232.965 93.752 233.21 93.8533 233.413 94.056C233.621 94.2587 233.725 94.5173 233.725 94.832C233.725 95.152 233.621 95.4133 233.413 95.616C233.205 95.8187 232.959 95.92 232.677 95.92ZM236.125 106V93.56H237.613V106H236.125ZM240.266 106V93.56H241.754V106H240.266ZM3.456 128.096C2.90133 128.096 2.42133 127.992 2.016 127.784C1.616 127.571 1.30667 127.283 1.088 126.92C0.874667 126.557 0.768 126.147 0.768 125.688C0.768 125.213 0.861333 124.813 1.048 124.488C1.23467 124.157 1.504 123.888 1.856 123.68C2.208 123.467 2.63467 123.307 3.136 123.2C3.46667 123.125 3.816 123.067 4.184 123.024C4.55733 122.981 4.91467 122.947 5.256 122.92C5.59733 122.893 5.888 122.875 6.128 122.864V122.376C6.128 121.677 5.98133 121.176 5.688 120.872C5.39467 120.563 4.93867 120.408 4.32 120.408C3.936 120.408 3.59733 120.459 3.304 120.56C3.016 120.661 2.792 120.851 2.632 121.128C2.472 121.4 2.39467 121.8 2.4 122.328H1.008C0.944 121.608 1.04533 121.011 1.312 120.536C1.57867 120.056 1.97867 119.699 2.512 119.464C3.04533 119.224 3.67733 119.104 4.408 119.104C4.824 119.104 5.22133 119.155 5.6 119.256C5.97867 119.352 6.31467 119.517 6.608 119.752C6.90133 119.981 7.13333 120.296 7.304 120.696C7.47467 121.096 7.56 121.597 7.56 122.2V128H6.112L6.128 126.104C5.99467 126.707 5.69333 127.189 5.224 127.552C4.76 127.915 4.17067 128.096 3.456 128.096ZM3.8 126.92C4.18933 126.92 4.54667 126.848 4.872 126.704C5.20267 126.56 5.48 126.376 5.704 126.152C5.928 125.928 6.06933 125.699 6.128 125.464V123.768C5.81867 123.789 5.47467 123.827 5.096 123.88C4.71733 123.928 4.384 123.987 4.096 124.056C3.52 124.189 3.09067 124.368 2.808 124.592C2.53067 124.816 2.392 125.139 2.392 125.56C2.392 125.811 2.44533 126.04 2.552 126.248C2.664 126.451 2.824 126.613 3.032 126.736C3.24 126.853 3.496 126.915 3.8 126.92ZM10.1093 128V115.56H11.5973V128H10.1093ZM15.8259 128L13.1059 119.272H14.7699L15.9059 123.48L16.6499 126.704H16.7299L17.3299 123.512L18.4019 119.272H20.2819L21.3299 123.52L21.9379 126.768L22.0179 126.76L22.7779 123.488L23.9139 119.272H25.5699L22.8579 128H21.0979L19.9619 123.648L19.3939 120.928H19.2979L18.7139 123.656L17.5859 128H15.8259ZM29.206 128.096C28.6513 128.096 28.1713 127.992 27.766 127.784C27.366 127.571 27.0567 127.283 26.838 126.92C26.6247 126.557 26.518 126.147 26.518 125.688C26.518 125.213 26.6113 124.813 26.798 124.488C26.9847 124.157 27.254 123.888 27.606 123.68C27.958 123.467 28.3847 123.307 28.886 123.2C29.2167 123.125 29.566 123.067 29.934 123.024C30.3073 122.981 30.6647 122.947 31.006 122.92C31.3473 122.893 31.638 122.875 31.878 122.864V122.376C31.878 121.677 31.7313 121.176 31.438 120.872C31.1447 120.563 30.6887 120.408 30.07 120.408C29.686 120.408 29.3473 120.459 29.054 120.56C28.766 120.661 28.542 120.851 28.382 121.128C28.222 121.4 28.1447 121.8 28.15 122.328H26.758C26.694 121.608 26.7953 121.011 27.062 120.536C27.3287 120.056 27.7287 119.699 28.262 119.464C28.7953 119.224 29.4273 119.104 30.158 119.104C30.574 119.104 30.9713 119.155 31.35 119.256C31.7287 119.352 32.0647 119.517 32.358 119.752C32.6513 119.981 32.8833 120.296 33.054 120.696C33.2247 121.096 33.31 121.597 33.31 122.2V128H31.862L31.878 126.104C31.7447 126.707 31.4433 127.189 30.974 127.552C30.51 127.915 29.9207 128.096 29.206 128.096ZM29.55 126.92C29.9393 126.92 30.2967 126.848 30.622 126.704C30.9527 126.56 31.23 126.376 31.454 126.152C31.678 125.928 31.8193 125.699 31.878 125.464V123.768C31.5687 123.789 31.2247 123.827 30.846 123.88C30.4673 123.928 30.134 123.987 29.846 124.056C29.27 124.189 28.8407 124.368 28.558 124.592C28.2807 124.816 28.142 125.139 28.142 125.56C28.142 125.811 28.1953 126.04 28.302 126.248C28.414 126.451 28.574 126.613 28.782 126.736C28.99 126.853 29.246 126.915 29.55 126.92ZM35.2351 131.448V130.024H35.8831C36.2671 130.024 36.5631 129.976 36.7711 129.88C36.9845 129.789 37.1445 129.659 37.2511 129.488C37.3578 129.317 37.4431 129.115 37.5071 128.88C37.5871 128.597 37.6591 128.392 37.7231 128.264C37.7871 128.141 37.8698 128.053 37.9711 128H37.4911L34.5631 119.272H36.2191L37.3311 123.184L38.3151 126.488H38.3791L39.3311 123.184L40.4431 119.272H42.0991L39.1631 128C38.9871 128.528 38.8138 129.003 38.6431 129.424C38.4725 129.851 38.2725 130.213 38.0431 130.512C37.8138 130.816 37.5258 131.048 37.1791 131.208C36.8378 131.368 36.4058 131.448 35.8831 131.448H35.2351ZM46.3849 128.136C45.7822 128.136 45.2302 128.045 44.7289 127.864C44.2329 127.677 43.8302 127.389 43.5209 127C43.2115 126.605 43.0382 126.099 43.0009 125.48H44.4729C44.5689 126.013 44.7795 126.381 45.1049 126.584C45.4355 126.781 45.8542 126.88 46.3609 126.88C46.7075 126.88 47.0195 126.843 47.2969 126.768C47.5795 126.693 47.8035 126.568 47.9689 126.392C48.1342 126.216 48.2169 125.976 48.2169 125.672C48.2169 125.437 48.1662 125.248 48.0649 125.104C47.9635 124.96 47.8222 124.843 47.6409 124.752C47.4595 124.656 47.2462 124.573 47.0009 124.504C46.7609 124.435 46.4995 124.36 46.2169 124.28C45.6889 124.125 45.2009 123.947 44.7529 123.744C44.3049 123.536 43.9449 123.259 43.6729 122.912C43.4009 122.565 43.2649 122.101 43.2649 121.52C43.2649 120.805 43.5369 120.227 44.0809 119.784C44.6249 119.336 45.3395 119.112 46.2249 119.112C46.7849 119.112 47.2889 119.197 47.7369 119.368C48.1902 119.539 48.5582 119.813 48.8409 120.192C49.1289 120.565 49.3049 121.067 49.3689 121.696H47.9049C47.8515 121.408 47.7529 121.165 47.6089 120.968C47.4702 120.771 47.2862 120.621 47.0569 120.52C46.8275 120.419 46.5475 120.368 46.2169 120.368C45.9395 120.368 45.6889 120.408 45.4649 120.488C45.2409 120.563 45.0622 120.683 44.9289 120.848C44.7955 121.013 44.7289 121.232 44.7289 121.504C44.7289 121.803 44.8089 122.043 44.9689 122.224C45.1289 122.405 45.3555 122.557 45.6489 122.68C45.9422 122.797 46.2862 122.915 46.6809 123.032C46.9849 123.128 47.3102 123.229 47.6569 123.336C48.0035 123.437 48.3289 123.573 48.6329 123.744C48.9422 123.915 49.1929 124.144 49.3849 124.432C49.5822 124.715 49.6809 125.085 49.6809 125.544C49.6809 126.365 49.3769 127.003 48.7689 127.456C48.1609 127.909 47.3662 128.136 46.3849 128.136ZM54.5544 128V115.56H56.0344V119.272L55.9064 121.76L55.9784 122.464L55.8504 121.896C55.9144 121.411 56.0477 120.955 56.2504 120.528C56.4584 120.101 56.7597 119.755 57.1544 119.488C57.5544 119.221 58.069 119.088 58.6984 119.088C59.525 119.088 60.1624 119.333 60.6104 119.824C61.0584 120.315 61.2824 121.061 61.2824 122.064V128H59.7944V122.552C59.7944 121.843 59.677 121.32 59.4424 120.984C59.213 120.648 58.789 120.48 58.1704 120.48C57.6957 120.48 57.2824 120.621 56.9304 120.904C56.5784 121.181 56.2797 121.557 56.0344 122.032V128H54.5544ZM67.1789 128.12C66.3842 128.12 65.6855 127.947 65.0829 127.6C64.4855 127.253 64.0215 126.744 63.6909 126.072C63.3602 125.395 63.1949 124.568 63.1949 123.592C63.1949 122.653 63.3655 121.848 63.7069 121.176C64.0482 120.504 64.5175 119.989 65.1149 119.632C65.7122 119.275 66.3922 119.096 67.1549 119.096C67.9122 119.096 68.5602 119.259 69.0989 119.584C69.6429 119.909 70.0615 120.376 70.3549 120.984C70.6482 121.587 70.7922 122.309 70.7869 123.152C70.7869 123.323 70.7815 123.464 70.7709 123.576C70.7602 123.688 70.7522 123.805 70.7469 123.928H64.6829C64.7202 124.888 64.9602 125.616 65.4029 126.112C65.8509 126.603 66.4215 126.848 67.1149 126.848C67.7015 126.848 68.1549 126.725 68.4749 126.48C68.8002 126.229 69.0055 125.909 69.0909 125.52H70.5469C70.5095 126.075 70.3389 126.547 70.0349 126.936C69.7362 127.325 69.3415 127.621 68.8509 127.824C68.3602 128.021 67.8029 128.12 67.1789 128.12ZM65.4749 122.808H69.2909C69.2802 122.061 69.0962 121.475 68.7389 121.048C68.3815 120.621 67.8349 120.408 67.0989 120.408C66.3255 120.408 65.7389 120.672 65.3389 121.2C64.9389 121.723 64.7202 122.445 64.6829 123.368C64.7255 123.149 64.8109 123.003 64.9389 122.928C65.0722 122.848 65.2509 122.808 65.4749 122.808ZM72.7186 128V115.56H74.2066V128H72.7186ZM80.6593 128.096C80.0939 128.096 79.6379 127.997 79.2913 127.8C78.9499 127.597 78.6966 127.365 78.5313 127.104C78.3659 126.843 78.2673 126.624 78.2353 126.448L77.7633 126.368L78.3313 125.952C78.3793 126.08 78.4833 126.216 78.6433 126.36C78.8033 126.504 79.0193 126.629 79.2913 126.736C79.5686 126.837 79.8966 126.888 80.2753 126.888C80.9313 126.888 81.4753 126.619 81.9073 126.08C82.3446 125.541 82.5633 124.696 82.5633 123.544C82.5633 122.509 82.3606 121.731 81.9553 121.208C81.5553 120.68 81.0433 120.416 80.4193 120.416C79.9979 120.416 79.6406 120.483 79.3473 120.616C79.0593 120.749 78.8299 120.912 78.6593 121.104C78.4939 121.291 78.3846 121.472 78.3313 121.648V121.056C78.3419 120.885 78.3953 120.691 78.4913 120.472C78.5873 120.248 78.7339 120.032 78.9313 119.824C79.1339 119.616 79.3926 119.445 79.7073 119.312C80.0219 119.173 80.4059 119.104 80.8593 119.104C81.5259 119.104 82.1019 119.283 82.5873 119.64C83.0726 119.997 83.4459 120.501 83.7073 121.152C83.9686 121.803 84.0993 122.565 84.0993 123.44C84.0993 124.235 84.0006 124.925 83.8033 125.512C83.6059 126.093 83.3393 126.576 83.0033 126.96C82.6726 127.344 82.3019 127.629 81.8913 127.816C81.4859 128.003 81.0753 128.096 80.6593 128.096ZM76.8513 131.224V119.272H78.3153L78.3313 120.448V125.952L78.2353 126.448L78.3313 128.008L78.3393 131.224H76.8513ZM88.7351 131.448V130.024H89.3831C89.7671 130.024 90.0631 129.976 90.2711 129.88C90.4845 129.789 90.6445 129.659 90.7511 129.488C90.8578 129.317 90.9431 129.115 91.0071 128.88C91.0871 128.597 91.1591 128.392 91.2231 128.264C91.2871 128.141 91.3698 128.053 91.4711 128H90.9911L88.0631 119.272H89.7191L90.8311 123.184L91.8151 126.488H91.8791L92.8311 123.184L93.9431 119.272H95.5991L92.6631 128C92.4871 128.528 92.3138 129.003 92.1431 129.424C91.9725 129.851 91.7725 130.213 91.5431 130.512C91.3138 130.816 91.0258 131.048 90.6791 131.208C90.3378 131.368 89.9058 131.448 89.3831 131.448H88.7351ZM100.326 128.12C99.5576 128.12 98.883 127.947 98.3016 127.6C97.7256 127.253 97.275 126.744 96.9496 126.072C96.6296 125.395 96.4696 124.565 96.4696 123.584C96.4696 122.656 96.6403 121.856 96.9816 121.184C97.323 120.512 97.787 119.997 98.3736 119.64C98.9656 119.277 99.627 119.096 100.358 119.096C101.152 119.096 101.838 119.277 102.414 119.64C102.995 119.997 103.443 120.512 103.758 121.184C104.072 121.856 104.23 122.656 104.23 123.584C104.23 124.565 104.054 125.395 103.702 126.072C103.355 126.744 102.886 127.253 102.294 127.6C101.702 127.947 101.046 128.12 100.326 128.12ZM100.358 126.808C101.072 126.808 101.643 126.541 102.07 126.008C102.496 125.475 102.71 124.667 102.71 123.584C102.71 122.549 102.499 121.763 102.078 121.224C101.662 120.68 101.078 120.408 100.326 120.408C99.6163 120.408 99.0483 120.68 98.6216 121.224C98.2003 121.763 97.9896 122.549 97.9896 123.584C97.9896 124.629 98.203 125.429 98.6296 125.984C99.0616 126.533 99.6376 126.808 100.358 126.808ZM108.658 128.176C107.906 128.176 107.301 127.92 106.842 127.408C106.383 126.896 106.154 126.181 106.154 125.264V119.272H107.642V124.864C107.642 125.301 107.693 125.661 107.794 125.944C107.895 126.227 108.055 126.437 108.274 126.576C108.498 126.709 108.786 126.779 109.138 126.784C109.618 126.784 110.034 126.656 110.386 126.4C110.743 126.139 111.039 125.779 111.274 125.32V119.272H112.754V128H111.49L111.322 124.968L111.482 125.368C111.413 125.88 111.266 126.349 111.042 126.776C110.823 127.197 110.517 127.536 110.122 127.792C109.733 128.048 109.245 128.176 108.658 128.176ZM120.818 128.12C120.14 128.12 119.623 127.947 119.266 127.6C118.914 127.248 118.738 126.749 118.738 126.104V121.368C118.738 121.197 118.772 121.04 118.842 120.896C118.911 120.747 119.012 120.651 119.146 120.608L118.738 119.616V119.344L119.098 116.736H120.21V125.856C120.21 126.197 120.29 126.429 120.45 126.552C120.61 126.669 120.884 126.728 121.274 126.728C121.556 126.728 121.796 126.728 121.994 126.728C122.191 126.723 122.396 126.712 122.61 126.696V128.008C122.316 128.061 122.012 128.093 121.698 128.104C121.388 128.115 121.095 128.12 120.818 128.12ZM117.465 120.608V119.272H122.538V120.608H117.465ZM124.304 128V115.56H125.784V119.272L125.656 121.76L125.728 122.464L125.6 121.896C125.664 121.411 125.798 120.955 126 120.528C126.208 120.101 126.51 119.755 126.904 119.488C127.304 119.221 127.819 119.088 128.448 119.088C129.275 119.088 129.912 119.333 130.36 119.824C130.808 120.315 131.032 121.061 131.032 122.064V128H129.544V122.552C129.544 121.843 129.427 121.32 129.192 120.984C128.963 120.648 128.539 120.48 127.92 120.48C127.446 120.48 127.032 120.621 126.68 120.904C126.328 121.181 126.03 121.557 125.784 122.032V128H124.304ZM133.578 128V119.272H134.842L135.002 122.624L134.826 122.168C134.863 121.837 134.935 121.493 135.042 121.136C135.154 120.779 135.311 120.445 135.514 120.136C135.722 119.821 135.986 119.568 136.306 119.376C136.631 119.184 137.028 119.088 137.498 119.088C137.588 119.088 137.674 119.093 137.754 119.104C137.839 119.115 137.922 119.128 138.002 119.144V120.72C137.868 120.677 137.727 120.651 137.578 120.64C137.434 120.624 137.298 120.616 137.17 120.616C136.908 120.616 136.644 120.667 136.378 120.768C136.111 120.869 135.863 121.032 135.634 121.256C135.404 121.475 135.215 121.76 135.066 122.112V128H133.578ZM142.81 128.12C142.042 128.12 141.367 127.947 140.786 127.6C140.21 127.253 139.759 126.744 139.434 126.072C139.114 125.395 138.954 124.565 138.954 123.584C138.954 122.656 139.125 121.856 139.466 121.184C139.807 120.512 140.271 119.997 140.858 119.64C141.45 119.277 142.111 119.096 142.842 119.096C143.637 119.096 144.322 119.277 144.898 119.64C145.479 119.997 145.927 120.512 146.242 121.184C146.557 121.856 146.714 122.656 146.714 123.584C146.714 124.565 146.538 125.395 146.186 126.072C145.839 126.744 145.37 127.253 144.778 127.6C144.186 127.947 143.53 128.12 142.81 128.12ZM142.842 126.808C143.557 126.808 144.127 126.541 144.554 126.008C144.981 125.475 145.194 124.667 145.194 123.584C145.194 122.549 144.983 121.763 144.562 121.224C144.146 120.68 143.562 120.408 142.81 120.408C142.101 120.408 141.533 120.68 141.106 121.224C140.685 121.763 140.474 122.549 140.474 123.584C140.474 124.629 140.687 125.429 141.114 125.984C141.546 126.533 142.122 126.808 142.842 126.808ZM151.142 128.176C150.39 128.176 149.785 127.92 149.326 127.408C148.868 126.896 148.638 126.181 148.638 125.264V119.272H150.126V124.864C150.126 125.301 150.177 125.661 150.278 125.944C150.38 126.227 150.54 126.437 150.758 126.576C150.982 126.709 151.27 126.779 151.622 126.784C152.102 126.784 152.518 126.656 152.87 126.4C153.228 126.139 153.524 125.779 153.758 125.32V119.272H155.238V128H153.974L153.806 124.968L153.966 125.368C153.897 125.88 153.75 126.349 153.526 126.776C153.308 127.197 153.001 127.536 152.606 127.792C152.217 128.048 151.729 128.176 151.142 128.176ZM161.084 131.56C160.422 131.56 159.822 131.445 159.284 131.216C158.745 130.987 158.326 130.635 158.028 130.16C157.729 129.691 157.609 129.096 157.668 128.376H159.108C159.092 128.776 159.142 129.117 159.26 129.4C159.377 129.683 159.585 129.899 159.884 130.048C160.182 130.197 160.593 130.272 161.116 130.272C161.628 130.272 162.02 130.197 162.292 130.048C162.564 129.899 162.75 129.667 162.852 129.352C162.958 129.037 163.012 128.632 163.012 128.136V125.792C162.964 126.032 162.854 126.291 162.684 126.568C162.518 126.845 162.268 127.083 161.932 127.28C161.601 127.477 161.158 127.576 160.604 127.576C160.097 127.576 159.638 127.469 159.228 127.256C158.817 127.037 158.462 126.739 158.164 126.36C157.87 125.981 157.644 125.541 157.484 125.04C157.329 124.539 157.252 124.005 157.252 123.44C157.252 122.491 157.412 121.696 157.732 121.056C158.052 120.411 158.47 119.925 158.988 119.6C159.505 119.269 160.06 119.104 160.652 119.104C161.137 119.104 161.534 119.171 161.844 119.304C162.158 119.432 162.409 119.592 162.596 119.784C162.782 119.976 162.921 120.163 163.012 120.344V119.272H164.476V128.088C164.476 128.931 164.329 129.605 164.036 130.112C163.742 130.619 163.34 130.984 162.828 131.208C162.321 131.437 161.74 131.555 161.084 131.56ZM161.06 126.336C161.46 126.336 161.793 126.272 162.06 126.144C162.326 126.011 162.537 125.848 162.692 125.656C162.846 125.464 162.953 125.28 163.012 125.104V121.392C162.964 121.264 162.86 121.123 162.7 120.968C162.54 120.813 162.326 120.68 162.06 120.568C161.793 120.456 161.468 120.4 161.084 120.4C160.401 120.4 159.849 120.645 159.428 121.136C159.006 121.621 158.796 122.365 158.796 123.368C158.796 124.339 159.006 125.077 159.428 125.584C159.854 126.085 160.398 126.336 161.06 126.336ZM167.133 128V115.56H168.613V119.272L168.485 121.76L168.557 122.464L168.429 121.896C168.493 121.411 168.626 120.955 168.829 120.528C169.037 120.101 169.338 119.755 169.733 119.488C170.133 119.221 170.647 119.088 171.277 119.088C172.103 119.088 172.741 119.333 173.189 119.824C173.637 120.315 173.861 121.061 173.861 122.064V128H172.373V122.552C172.373 121.843 172.255 121.32 172.021 120.984C171.791 120.648 171.367 120.48 170.749 120.48C170.274 120.48 169.861 120.621 169.509 120.904C169.157 121.181 168.858 121.557 168.613 122.032V128H167.133ZM181.849 128.12C181.171 128.12 180.654 127.947 180.297 127.6C179.945 127.248 179.769 126.749 179.769 126.104V121.368C179.769 121.197 179.803 121.04 179.873 120.896C179.942 120.747 180.043 120.651 180.177 120.608L179.769 119.616V119.344L180.129 116.736H181.241V125.856C181.241 126.197 181.321 126.429 181.481 126.552C181.641 126.669 181.915 126.728 182.305 126.728C182.587 126.728 182.827 126.728 183.025 126.728C183.222 126.723 183.427 126.712 183.641 126.696V128.008C183.347 128.061 183.043 128.093 182.729 128.104C182.419 128.115 182.126 128.12 181.849 128.12ZM178.497 120.608V119.272H183.569V120.608H178.497ZM185.336 128V115.56H186.816V119.272L186.688 121.76L186.76 122.464L186.632 121.896C186.696 121.411 186.829 120.955 187.032 120.528C187.24 120.101 187.541 119.755 187.936 119.488C188.336 119.221 188.85 119.088 189.48 119.088C190.306 119.088 190.944 119.333 191.392 119.824C191.84 120.315 192.064 121.061 192.064 122.064V128H190.576V122.552C190.576 121.843 190.458 121.32 190.224 120.984C189.994 120.648 189.57 120.48 188.952 120.48C188.477 120.48 188.064 120.621 187.712 120.904C187.36 121.181 187.061 121.557 186.816 122.032V128H185.336ZM197.96 128.12C197.165 128.12 196.467 127.947 195.864 127.6C195.267 127.253 194.803 126.744 194.472 126.072C194.141 125.395 193.976 124.568 193.976 123.592C193.976 122.653 194.147 121.848 194.488 121.176C194.829 120.504 195.299 119.989 195.896 119.632C196.493 119.275 197.173 119.096 197.936 119.096C198.693 119.096 199.341 119.259 199.88 119.584C200.424 119.909 200.843 120.376 201.136 120.984C201.429 121.587 201.573 122.309 201.568 123.152C201.568 123.323 201.563 123.464 201.552 123.576C201.541 123.688 201.533 123.805 201.528 123.928H195.464C195.501 124.888 195.741 125.616 196.184 126.112C196.632 126.603 197.203 126.848 197.896 126.848C198.483 126.848 198.936 126.725 199.256 126.48C199.581 126.229 199.787 125.909 199.872 125.52H201.328C201.291 126.075 201.12 126.547 200.816 126.936C200.517 127.325 200.123 127.621 199.632 127.824C199.141 128.021 198.584 128.12 197.96 128.12ZM196.256 122.808H200.072C200.061 122.061 199.877 121.475 199.52 121.048C199.163 120.621 198.616 120.408 197.88 120.408C197.107 120.408 196.52 120.672 196.12 121.2C195.72 121.723 195.501 122.445 195.464 123.368C195.507 123.149 195.592 123.003 195.72 122.928C195.853 122.848 196.032 122.808 196.256 122.808ZM210.144 128.096C209.578 128.096 209.122 127.997 208.776 127.8C208.434 127.597 208.181 127.365 208.016 127.104C207.85 126.843 207.752 126.624 207.72 126.448L207.248 126.368L207.816 125.952C207.864 126.08 207.968 126.216 208.128 126.36C208.288 126.504 208.504 126.629 208.776 126.736C209.053 126.837 209.381 126.888 209.76 126.888C210.416 126.888 210.96 126.619 211.392 126.08C211.829 125.541 212.048 124.696 212.048 123.544C212.048 122.509 211.845 121.731 211.44 121.208C211.04 120.68 210.528 120.416 209.904 120.416C209.482 120.416 209.125 120.483 208.832 120.616C208.544 120.749 208.314 120.912 208.144 121.104C207.978 121.291 207.869 121.472 207.816 121.648V121.056C207.826 120.885 207.88 120.691 207.976 120.472C208.072 120.248 208.218 120.032 208.416 119.824C208.618 119.616 208.877 119.445 209.192 119.312C209.506 119.173 209.89 119.104 210.344 119.104C211.01 119.104 211.586 119.283 212.072 119.64C212.557 119.997 212.93 120.501 213.192 121.152C213.453 121.803 213.584 122.565 213.584 123.44C213.584 124.235 213.485 124.925 213.288 125.512C213.09 126.093 212.824 126.576 212.488 126.96C212.157 127.344 211.786 127.629 211.376 127.816C210.97 128.003 210.56 128.096 210.144 128.096ZM206.336 131.224V119.272H207.8L207.816 120.448V125.952L207.72 126.448L207.816 128.008L207.824 131.224H206.336ZM215.625 128V119.272H216.889L217.049 122.624L216.873 122.168C216.91 121.837 216.982 121.493 217.089 121.136C217.201 120.779 217.358 120.445 217.561 120.136C217.769 119.821 218.033 119.568 218.352 119.376C218.678 119.184 219.075 119.088 219.545 119.088C219.635 119.088 219.721 119.093 219.801 119.104C219.886 119.115 219.969 119.128 220.049 119.144V120.72C219.915 120.677 219.774 120.651 219.625 120.64C219.481 120.624 219.345 120.616 219.217 120.616C218.955 120.616 218.691 120.667 218.424 120.768C218.158 120.869 217.91 121.032 217.681 121.256C217.451 121.475 217.262 121.76 217.113 122.112V128H215.625ZM224.857 128.12C224.089 128.12 223.414 127.947 222.833 127.6C222.257 127.253 221.806 126.744 221.481 126.072C221.161 125.395 221.001 124.565 221.001 123.584C221.001 122.656 221.172 121.856 221.513 121.184C221.854 120.512 222.318 119.997 222.905 119.64C223.497 119.277 224.158 119.096 224.889 119.096C225.684 119.096 226.369 119.277 226.945 119.64C227.526 119.997 227.974 120.512 228.289 121.184C228.604 121.856 228.761 122.656 228.761 123.584C228.761 124.565 228.585 125.395 228.233 126.072C227.886 126.744 227.417 127.253 226.825 127.6C226.233 127.947 225.577 128.12 224.857 128.12ZM224.889 126.808C225.604 126.808 226.174 126.541 226.601 126.008C227.028 125.475 227.241 124.667 227.241 123.584C227.241 122.549 227.03 121.763 226.609 121.224C226.193 120.68 225.609 120.408 224.857 120.408C224.148 120.408 223.58 120.68 223.153 121.224C222.732 121.763 222.521 122.549 222.521 123.584C222.521 124.629 222.734 125.429 223.161 125.984C223.593 126.533 224.169 126.808 224.889 126.808ZM234.157 128.144C233.346 128.144 232.642 127.96 232.045 127.592C231.447 127.224 230.986 126.701 230.661 126.024C230.335 125.347 230.173 124.549 230.173 123.632C230.173 122.667 230.338 121.848 230.669 121.176C231.005 120.504 231.466 119.992 232.053 119.64C232.645 119.283 233.319 119.104 234.077 119.104C234.802 119.104 235.418 119.245 235.925 119.528C236.431 119.805 236.818 120.176 237.085 120.64C237.357 121.104 237.501 121.616 237.517 122.176H236.053C236.042 121.963 235.997 121.752 235.917 121.544C235.837 121.336 235.717 121.149 235.557 120.984C235.397 120.813 235.191 120.677 234.941 120.576C234.695 120.469 234.399 120.416 234.053 120.416C233.247 120.411 232.653 120.691 232.269 121.256C231.885 121.821 231.693 122.597 231.693 123.584C231.693 124.64 231.906 125.445 232.333 126C232.759 126.555 233.399 126.832 234.253 126.832C234.583 126.832 234.879 126.757 235.141 126.608C235.402 126.459 235.61 126.264 235.765 126.024C235.925 125.784 236.01 125.528 236.021 125.256H237.485C237.469 125.805 237.314 126.299 237.021 126.736C236.727 127.173 236.333 127.517 235.837 127.768C235.341 128.019 234.781 128.144 234.157 128.144ZM242.741 128.12C241.947 128.12 241.248 127.947 240.645 127.6C240.048 127.253 239.584 126.744 239.253 126.072C238.923 125.395 238.757 124.568 238.757 123.592C238.757 122.653 238.928 121.848 239.269 121.176C239.611 120.504 240.08 119.989 240.677 119.632C241.275 119.275 241.955 119.096 242.717 119.096C243.475 119.096 244.123 119.259 244.661 119.584C245.205 119.909 245.624 120.376 245.917 120.984C246.211 121.587 246.355 122.309 246.349 123.152C246.349 123.323 246.344 123.464 246.333 123.576C246.323 123.688 246.315 123.805 246.309 123.928H240.245C240.283 124.888 240.523 125.616 240.965 126.112C241.413 126.603 241.984 126.848 242.677 126.848C243.264 126.848 243.717 126.725 244.037 126.48C244.363 126.229 244.568 125.909 244.653 125.52H246.109C246.072 126.075 245.901 126.547 245.597 126.936C245.299 127.325 244.904 127.621 244.413 127.824C243.923 128.021 243.365 128.12 242.741 128.12ZM241.037 122.808H244.853C244.843 122.061 244.659 121.475 244.301 121.048C243.944 120.621 243.397 120.408 242.661 120.408C241.888 120.408 241.301 120.672 240.901 121.2C240.501 121.723 240.283 122.445 240.245 123.368C240.288 123.149 240.373 123.003 240.501 122.928C240.635 122.848 240.813 122.808 241.037 122.808ZM251.01 128.136C250.407 128.136 249.855 128.045 249.354 127.864C248.858 127.677 248.455 127.389 248.146 127C247.837 126.605 247.663 126.099 247.626 125.48H249.098C249.194 126.013 249.405 126.381 249.73 126.584C250.061 126.781 250.479 126.88 250.986 126.88C251.333 126.88 251.645 126.843 251.922 126.768C252.205 126.693 252.429 126.568 252.594 126.392C252.759 126.216 252.842 125.976 252.842 125.672C252.842 125.437 252.791 125.248 252.69 125.104C252.589 124.96 252.447 124.843 252.266 124.752C252.085 124.656 251.871 124.573 251.626 124.504C251.386 124.435 251.125 124.36 250.842 124.28C250.314 124.125 249.826 123.947 249.378 123.744C248.93 123.536 248.57 123.259 248.298 122.912C248.026 122.565 247.89 122.101 247.89 121.52C247.89 120.805 248.162 120.227 248.706 119.784C249.25 119.336 249.965 119.112 250.85 119.112C251.41 119.112 251.914 119.197 252.362 119.368C252.815 119.539 253.183 119.813 253.466 120.192C253.754 120.565 253.93 121.067 253.994 121.696H252.53C252.477 121.408 252.378 121.165 252.234 120.968C252.095 120.771 251.911 120.621 251.682 120.52C251.453 120.419 251.173 120.368 250.842 120.368C250.565 120.368 250.314 120.408 250.09 120.488C249.866 120.563 249.687 120.683 249.554 120.848C249.421 121.013 249.354 121.232 249.354 121.504C249.354 121.803 249.434 122.043 249.594 122.224C249.754 122.405 249.981 122.557 250.274 122.68C250.567 122.797 250.911 122.915 251.306 123.032C251.61 123.128 251.935 123.229 252.282 123.336C252.629 123.437 252.954 123.573 253.258 123.744C253.567 123.915 253.818 124.144 254.01 124.432C254.207 124.715 254.306 125.085 254.306 125.544C254.306 126.365 254.002 127.003 253.394 127.456C252.786 127.909 251.991 128.136 251.01 128.136ZM259.072 128.136C258.47 128.136 257.918 128.045 257.416 127.864C256.92 127.677 256.518 127.389 256.208 127C255.899 126.605 255.726 126.099 255.688 125.48H257.16C257.256 126.013 257.467 126.381 257.792 126.584C258.123 126.781 258.542 126.88 259.048 126.88C259.395 126.88 259.707 126.843 259.984 126.768C260.267 126.693 260.491 126.568 260.656 126.392C260.822 126.216 260.904 125.976 260.904 125.672C260.904 125.437 260.854 125.248 260.752 125.104C260.651 124.96 260.51 124.843 260.328 124.752C260.147 124.656 259.934 124.573 259.688 124.504C259.448 124.435 259.187 124.36 258.904 124.28C258.376 124.125 257.888 123.947 257.44 123.744C256.992 123.536 256.632 123.259 256.36 122.912C256.088 122.565 255.952 122.101 255.952 121.52C255.952 120.805 256.224 120.227 256.768 119.784C257.312 119.336 258.027 119.112 258.912 119.112C259.472 119.112 259.976 119.197 260.424 119.368C260.878 119.539 261.246 119.813 261.528 120.192C261.816 120.565 261.992 121.067 262.056 121.696H260.592C260.539 121.408 260.44 121.165 260.296 120.968C260.158 120.771 259.974 120.621 259.744 120.52C259.515 120.419 259.235 120.368 258.904 120.368C258.627 120.368 258.376 120.408 258.152 120.488C257.928 120.563 257.75 120.683 257.616 120.848C257.483 121.013 257.416 121.232 257.416 121.504C257.416 121.803 257.496 122.043 257.656 122.224C257.816 122.405 258.043 122.557 258.336 122.68C258.63 122.797 258.974 122.915 259.368 123.032C259.672 123.128 259.998 123.229 260.344 123.336C260.691 123.437 261.016 123.573 261.32 123.744C261.63 123.915 261.88 124.144 262.072 124.432C262.27 124.715 262.368 125.085 262.368 125.544C262.368 126.365 262.064 127.003 261.456 127.456C260.848 127.909 260.054 128.136 259.072 128.136ZM264.796 128.12C264.502 128.12 264.254 128.019 264.052 127.816C263.849 127.613 263.748 127.349 263.748 127.024C263.748 126.704 263.849 126.443 264.052 126.24C264.254 126.037 264.502 125.936 264.796 125.936C265.089 125.936 265.337 126.037 265.539 126.24C265.742 126.443 265.844 126.704 265.844 127.024C265.844 127.349 265.742 127.613 265.539 127.816C265.337 128.019 265.089 128.12 264.796 128.12Z" fill="#626D82"/>
<rect y="158" width="97" height="34" rx="5" fill="#1F4451"/>
<path d="M22.8945 180.126C22.0985 180.126 21.4045 179.95 20.8125 179.598C20.2245 179.246 19.7665 178.734 19.4385 178.062C19.1145 177.386 18.9525 176.568 18.9525 175.608C18.9525 174.684 19.1105 173.886 19.4265 173.214C19.7465 172.542 20.2025 172.024 20.7945 171.66C21.3905 171.296 22.1005 171.114 22.9245 171.114C23.5205 171.114 24.0665 171.228 24.5625 171.456C25.0585 171.684 25.4565 172.024 25.7565 172.476C26.0605 172.928 26.2165 173.488 26.2245 174.156H24.5085C24.4965 173.8 24.4125 173.514 24.2565 173.298C24.1005 173.082 23.8965 172.926 23.6445 172.83C23.3925 172.734 23.1165 172.686 22.8165 172.686C22.4045 172.686 22.0365 172.794 21.7125 173.01C21.3925 173.226 21.1385 173.552 20.9505 173.988C20.7625 174.424 20.6685 174.972 20.6685 175.632C20.6685 176.332 20.7645 176.898 20.9565 177.33C21.1485 177.758 21.4085 178.07 21.7365 178.266C22.0645 178.458 22.4325 178.554 22.8405 178.554C23.2245 178.554 23.5385 178.498 23.7825 178.386C24.0265 178.27 24.2085 178.112 24.3285 177.912C24.4485 177.712 24.5125 177.484 24.5205 177.228H26.2365C26.2245 177.824 26.0765 178.34 25.7925 178.776C25.5125 179.208 25.1245 179.542 24.6285 179.778C24.1325 180.01 23.5545 180.126 22.8945 180.126ZM30.1251 180.09C29.5051 180.09 28.9651 179.96 28.5051 179.7C28.0451 179.44 27.6891 179.058 27.4371 178.554C27.1851 178.046 27.0591 177.424 27.0591 176.688C27.0591 175.992 27.1911 175.392 27.4551 174.888C27.7231 174.384 28.0911 173.998 28.5591 173.73C29.0271 173.458 29.5571 173.322 30.1491 173.322C30.7891 173.322 31.3371 173.458 31.7931 173.73C32.2531 173.998 32.6051 174.384 32.8491 174.888C33.0931 175.392 33.2151 175.992 33.2151 176.688C33.2151 177.424 33.0791 178.046 32.8071 178.554C32.5351 179.058 32.1651 179.44 31.6971 179.7C31.2331 179.96 30.7091 180.09 30.1251 180.09ZM30.1491 178.704C30.5571 178.704 30.8931 178.552 31.1571 178.248C31.4251 177.944 31.5591 177.424 31.5591 176.688C31.5591 176.004 31.4251 175.504 31.1571 175.188C30.8891 174.868 30.5451 174.708 30.1251 174.708C29.7171 174.708 29.3811 174.866 29.1171 175.182C28.8531 175.498 28.7211 176 28.7211 176.688C28.7211 177.392 28.8571 177.904 29.1291 178.224C29.4011 178.544 29.7411 178.704 30.1491 178.704ZM34.4866 180V173.454H35.9446L36.1006 175.92L36.0166 175.422C36.0646 175.062 36.1586 174.722 36.2986 174.402C36.4386 174.078 36.6486 173.816 36.9286 173.616C37.2126 173.416 37.5866 173.316 38.0506 173.316C38.6586 173.316 39.1386 173.51 39.4906 173.898C39.8426 174.282 40.0186 174.87 40.0186 175.662V180H38.3626V176.262C38.3626 175.866 38.3246 175.558 38.2486 175.338C38.1766 175.114 38.0666 174.956 37.9186 174.864C37.7746 174.772 37.5906 174.726 37.3666 174.726C37.0946 174.726 36.8486 174.81 36.6286 174.978C36.4126 175.146 36.2526 175.34 36.1486 175.56V180H34.4866ZM43.405 180.084C42.873 180.084 42.459 179.95 42.163 179.682C41.867 179.41 41.719 179.006 41.719 178.47L41.707 175.356C41.707 175.216 41.743 175.096 41.815 174.996C41.887 174.896 41.989 174.83 42.121 174.798L41.707 173.712V173.526L42.037 171.576H43.351V177.996C43.351 178.252 43.393 178.43 43.477 178.53C43.565 178.63 43.727 178.68 43.963 178.68C44.151 178.68 44.317 178.678 44.461 178.674C44.605 178.67 44.737 178.662 44.857 178.65V179.994C44.685 180.042 44.465 180.068 44.197 180.072C43.929 180.08 43.665 180.084 43.405 180.084ZM40.933 174.798V173.454H44.839V174.798H40.933ZM47.7259 180.072C47.3419 180.072 46.9959 180 46.6879 179.856C46.3839 179.712 46.1439 179.504 45.9679 179.232C45.7959 178.96 45.7099 178.638 45.7099 178.266C45.7099 177.874 45.7859 177.552 45.9379 177.3C46.0899 177.044 46.3019 176.842 46.5739 176.694C46.8459 176.542 47.1599 176.43 47.5159 176.358C47.7639 176.306 48.0199 176.264 48.2839 176.232C48.5519 176.196 48.8019 176.168 49.0339 176.148C49.2659 176.128 49.4539 176.112 49.5979 176.1V175.878C49.5979 175.45 49.5199 175.14 49.3639 174.948C49.2079 174.752 48.9399 174.654 48.5599 174.654C48.3159 174.654 48.1099 174.686 47.9419 174.75C47.7779 174.814 47.6539 174.93 47.5699 175.098C47.4859 175.266 47.4439 175.508 47.4439 175.824H45.8959C45.8519 175.252 45.9379 174.782 46.1539 174.414C46.3739 174.046 46.6959 173.774 47.1199 173.598C47.5479 173.418 48.0499 173.328 48.6259 173.328C48.9659 173.328 49.2899 173.366 49.5979 173.442C49.9099 173.514 50.1859 173.64 50.4259 173.82C50.6699 173.996 50.8619 174.238 51.0019 174.546C51.1459 174.854 51.2179 175.244 51.2179 175.716V180H49.5859L49.5979 178.5C49.5259 178.94 49.3419 179.312 49.0459 179.616C48.7499 179.92 48.3099 180.072 47.7259 180.072ZM48.2299 178.914C48.4339 178.914 48.6319 178.878 48.8239 178.806C49.0199 178.73 49.1879 178.626 49.3279 178.494C49.4719 178.362 49.5619 178.21 49.5979 178.038V176.928C49.4379 176.952 49.2639 176.98 49.0759 177.012C48.8879 177.044 48.7239 177.076 48.5839 177.108C48.1599 177.196 47.8619 177.318 47.6899 177.474C47.5219 177.626 47.4379 177.84 47.4379 178.116C47.4379 178.28 47.4699 178.422 47.5339 178.542C47.6019 178.662 47.6959 178.754 47.8159 178.818C47.9399 178.882 48.0779 178.914 48.2299 178.914ZM55.5382 180.114C54.8702 180.114 54.3042 179.972 53.8402 179.688C53.3762 179.4 53.0242 179 52.7842 178.488C52.5482 177.972 52.4302 177.376 52.4302 176.7C52.4302 175.996 52.5522 175.392 52.7962 174.888C53.0442 174.384 53.3962 173.998 53.8522 173.73C54.3082 173.462 54.8462 173.328 55.4662 173.328C56.0782 173.328 56.5882 173.436 56.9962 173.652C57.4042 173.868 57.7062 174.162 57.9022 174.534C58.1022 174.906 58.1902 175.324 58.1662 175.788H56.5762C56.5682 175.608 56.5402 175.448 56.4922 175.308C56.4442 175.168 56.3742 175.052 56.2822 174.96C56.1902 174.864 56.0762 174.792 55.9402 174.744C55.8042 174.696 55.6462 174.672 55.4662 174.672C54.9822 174.668 54.6302 174.84 54.4102 175.188C54.1942 175.532 54.0862 176.026 54.0862 176.67C54.0862 177.39 54.2122 177.916 54.4642 178.248C54.7202 178.576 55.0982 178.746 55.5982 178.758C55.7502 178.762 55.9042 178.73 56.0602 178.662C56.2202 178.59 56.3522 178.48 56.4562 178.332C56.5602 178.184 56.6082 177.998 56.6002 177.774H58.1842C58.1962 178.246 58.0902 178.658 57.8662 179.01C57.6422 179.362 57.3282 179.634 56.9242 179.826C56.5242 180.018 56.0622 180.114 55.5382 180.114ZM61.4167 180.084C60.8847 180.084 60.4707 179.95 60.1747 179.682C59.8787 179.41 59.7307 179.006 59.7307 178.47L59.7187 175.356C59.7187 175.216 59.7547 175.096 59.8267 174.996C59.8987 174.896 60.0007 174.83 60.1327 174.798L59.7187 173.712V173.526L60.0487 171.576H61.3627V177.996C61.3627 178.252 61.4047 178.43 61.4887 178.53C61.5767 178.63 61.7387 178.68 61.9747 178.68C62.1627 178.68 62.3287 178.678 62.4727 178.674C62.6167 178.67 62.7487 178.662 62.8687 178.65V179.994C62.6967 180.042 62.4767 180.068 62.2087 180.072C61.9407 180.08 61.6767 180.084 61.4167 180.084ZM58.9447 174.798V173.454H62.8507V174.798H58.9447ZM68.0273 180.132C67.4473 180.132 66.9893 179.936 66.6533 179.544C66.3173 179.148 66.1493 178.564 66.1493 177.792V173.448H67.8113V177.282C67.8113 177.646 67.8453 177.934 67.9133 178.146C67.9813 178.354 68.0833 178.502 68.2193 178.59C68.3593 178.678 68.5313 178.722 68.7353 178.722C69.0073 178.722 69.2533 178.638 69.4733 178.47C69.6973 178.302 69.8593 178.108 69.9593 177.888V173.448H71.6153V180H70.1693L70.0073 177.528L70.0913 178.026C70.0433 178.386 69.9473 178.726 69.8033 179.046C69.6633 179.366 69.4513 179.628 69.1673 179.832C68.8833 180.032 68.5033 180.132 68.0273 180.132ZM75.5143 180.102C74.9823 180.102 74.5183 180.024 74.1223 179.868C73.7263 179.712 73.4143 179.476 73.1863 179.16C72.9623 178.84 72.8383 178.432 72.8143 177.936H74.4223C74.4663 178.264 74.5843 178.502 74.7763 178.65C74.9683 178.794 75.2163 178.866 75.5203 178.866C75.7043 178.866 75.8743 178.846 76.0303 178.806C76.1863 178.766 76.3103 178.698 76.4023 178.602C76.4983 178.506 76.5463 178.374 76.5463 178.206C76.5463 178.078 76.5163 177.974 76.4563 177.894C76.3963 177.81 76.3063 177.74 76.1863 177.684C76.0703 177.624 75.9263 177.568 75.7543 177.516C75.5823 177.464 75.3843 177.406 75.1603 177.342C74.7643 177.226 74.4003 177.088 74.0683 176.928C73.7363 176.764 73.4703 176.548 73.2703 176.28C73.0703 176.012 72.9703 175.662 72.9703 175.23C72.9703 174.61 73.1983 174.14 73.6543 173.82C74.1103 173.496 74.7043 173.334 75.4362 173.334C75.8843 173.334 76.2883 173.396 76.6483 173.52C77.0083 173.644 77.3043 173.858 77.5363 174.162C77.7723 174.466 77.9223 174.888 77.9863 175.428L76.3903 175.422C76.3423 175.174 76.2663 174.988 76.1623 174.864C76.0623 174.736 75.9463 174.65 75.8143 174.606C75.6863 174.562 75.5503 174.54 75.4062 174.54C75.2463 174.54 75.1023 174.566 74.9743 174.618C74.8503 174.666 74.7543 174.738 74.6863 174.834C74.6183 174.93 74.5843 175.046 74.5843 175.182C74.5843 175.35 74.6323 175.49 74.7283 175.602C74.8283 175.714 74.9783 175.812 75.1783 175.896C75.3823 175.976 75.6363 176.062 75.9403 176.154C76.1643 176.214 76.4043 176.284 76.6603 176.364C76.9163 176.444 77.1583 176.552 77.3863 176.688C77.6143 176.82 77.8003 177 77.9443 177.228C78.0923 177.452 78.1663 177.744 78.1663 178.104C78.1663 178.732 77.9263 179.222 77.4463 179.574C76.9663 179.926 76.3223 180.102 75.5143 180.102Z" fill="white"/>
<path d="M30.25 23.265V27.39C30.2516 27.773 30.1731 28.152 30.0197 28.5029C29.8663 28.8537 29.6413 29.1687 29.3591 29.4276C29.0769 29.6865 28.7438 29.8836 28.381 30.0062C28.0183 30.1289 27.6339 30.1745 27.2525 30.14C23.0214 29.6803 18.9571 28.2345 15.3862 25.9188C12.064 23.8077 9.24734 20.991 7.13625 17.6688C4.81247 14.0817 3.36633 9.99763 2.915 5.74751C2.88064 5.36728 2.92583 4.98406 3.04769 4.62224C3.16955 4.26043 3.36541 3.92796 3.6228 3.64599C3.8802 3.36402 4.19348 3.13874 4.54271 2.98448C4.89194 2.83022 5.26947 2.75037 5.65125 2.75001H9.77625C10.4435 2.74344 11.0905 2.97974 11.5964 3.41487C12.1024 3.84999 12.4329 4.45425 12.5262 5.11501C12.7004 6.4351 13.0232 7.73126 13.4888 8.97876C13.6737 9.47091 13.7138 10.0058 13.6041 10.52C13.4945 11.0342 13.2397 11.5062 12.87 11.88L11.1237 13.6263C13.0811 17.0686 15.9314 19.9189 19.3737 21.8763L21.12 20.13C21.4938 19.7603 21.9658 19.5056 22.48 19.3959C22.9942 19.2862 23.5291 19.3263 24.0212 19.5113C25.2687 19.9768 26.5649 20.2997 27.885 20.4738C28.5529 20.568 29.1629 20.9044 29.599 21.4191C30.035 21.9337 30.2667 22.5907 30.25 23.265Z" stroke="#1F4451" stroke-width="2.5" stroke-linecap="round" stroke-linejoin="round"/>
</svg>
