<svg width="168" height="32" viewBox="0 0 168 32" fill="none" xmlns="http://www.w3.org/2000/svg">
<path d="M87.3164 5.38477C91.0183 5.38494 94.8213 8.81783 94.8213 15.6494C94.8212 22.4471 91.0182 25.8797 87.3164 25.8799C84.2539 25.8799 82.0325 23.6924 81.3594 20.6973V28.5049C81.3594 30.0192 82.2679 30.8606 84.8926 31.8701H74.46C76.5465 30.8605 77.1523 29.851 77.1523 28.5049V8.14453L74.46 6.46191L81.1914 5.55273V11.3076C81.7299 8.00961 83.9847 5.38477 87.3164 5.38477ZM66.1045 5.38477C70.7151 5.38477 73.9463 9.08674 73.9463 14.2021C73.9463 14.606 73.9467 15.0774 73.8457 15.6494H61.5615C61.7299 19.9906 64.5573 22.7168 68.1582 22.7168C70.3118 22.7167 72.4315 21.7067 73.6094 20.2598C73.3401 23.7597 69.9416 25.8798 66.6436 25.8799C61.4273 25.8799 57.2872 22.0435 57.2871 15.6494C57.2871 9.15439 61.5614 5.38499 66.1045 5.38477ZM126.104 22.1104C126.104 23.4565 126.676 24.466 128.796 25.4756H122.064V20.832C121.088 23.9279 118.868 25.8797 116.176 25.8799C112.474 25.8799 110.454 23.2214 110.454 18.4092V8.14453L107.762 6.46191L114.661 5.51953V18.6777C114.661 21.7739 115.839 22.9521 118.026 22.9521C120.113 22.9521 121.896 21.6059 121.896 18.5098V8.14453L118.868 6.46191L126.104 5.51953V22.1104ZM160.158 5.38477C164.769 5.38477 168 9.08674 168 14.2021C168 14.606 168 15.0774 167.899 15.6494H155.615C155.784 19.9906 158.611 22.7168 162.212 22.7168C164.366 22.7167 166.485 21.7067 167.663 20.2598C167.394 23.7597 163.995 25.8798 160.697 25.8799C155.481 25.8799 151.341 22.0435 151.341 15.6494C151.341 9.15439 155.615 5.385 160.158 5.38477ZM102.053 5.78809H106.933V7.63965H102.053V19.9229C102.053 22.1103 102.692 22.9521 104.476 22.9521C105.519 22.9521 106.629 22.5141 107.269 22.043C106.898 24.2977 104.981 25.6776 102.625 25.6777C99.6634 25.6777 97.8457 23.9277 97.8457 20.4277V7.63965H94.4805L98.0811 5.55273L102.053 0V5.78809ZM51.9785 18.375L51.877 4.03809C51.8767 2.35565 50.3961 1.54776 47.1992 0.235352H57.127C55.007 1.24488 53.9299 2.52385 53.9297 4.03809V25.6104H51.709L37.0361 4.57715L37.1367 21.707C37.1368 23.3895 38.6177 24.2642 41.8145 25.4756H31.8867C33.973 24.466 35.0839 23.2213 35.084 21.707V3.76953C35.084 2.2551 34.1412 1.24497 32.0547 0.235352H39.3574L51.9785 18.375ZM24.5117 17.4619C22.6621 22.182 18.0672 25.5243 12.6914 25.5244C7.31543 25.5244 2.71971 22.1822 0.870117 17.4619C1.51295 18.4166 2.34723 19.2808 3.33008 20.0254C5.736 21.8481 9.04694 22.9668 12.6914 22.9668C16.3357 22.9668 19.6459 21.8479 22.0518 20.0254C23.0345 19.2809 23.8689 18.4166 24.5117 17.4619ZM142.249 5.38477C145.951 5.38477 148.139 8.24555 148.139 13.0244V22.1104C148.139 23.4564 148.711 24.466 150.831 25.4756H141.408C143.326 24.466 143.933 23.4564 143.933 22.1104V12.7881C143.932 9.65857 142.586 8.3125 140.398 8.3125C138.278 8.31251 136.528 9.65859 136.528 12.7881V22.1104C136.528 23.4565 137.101 24.466 139.053 25.4756H129.629C131.715 24.466 132.321 23.4565 132.321 22.1104V8.14453L129.629 6.46191L136.36 5.55273V10.4668C137.303 7.37079 139.557 5.38497 142.249 5.38477ZM85.6338 7.97559C83.2444 7.97559 81.3594 10.3322 81.3594 13.5293V17.7354C81.3594 20.9325 83.2444 23.2881 85.6338 23.2881C88.2586 23.2878 90.4462 20.6971 90.4463 15.6494C90.4463 10.6015 88.2586 7.97583 85.6338 7.97559ZM21.665 16.0879C20.3345 19.7559 16.8189 22.3769 12.6914 22.377C8.56385 22.377 5.04836 19.7559 3.71777 16.0879C4.20758 16.7299 4.83545 17.3092 5.56836 17.8076C7.40378 19.0557 9.92334 19.8184 12.6914 19.8184C15.4594 19.8183 17.9781 19.0557 19.8135 17.8076C20.5466 17.3091 21.1751 16.73 21.665 16.0879ZM12.6914 0.142578C19.7003 0.14268 25.3826 5.82412 25.3828 12.833C25.3828 15.4373 23.9893 17.8168 21.6953 19.5547C20.6005 20.3841 19.3037 21.0651 17.8633 21.5498C20.834 19.7832 22.8242 16.5402 22.8242 12.833C22.824 7.23682 18.2876 2.7003 12.6914 2.7002C7.0951 2.7002 2.55787 7.23676 2.55762 12.833C2.55762 16.5402 4.54875 19.7832 7.51953 21.5498C6.07897 21.0651 4.78144 20.3842 3.68652 19.5547C1.39261 17.8168 0 15.4372 0 12.833C0.000252283 5.82406 5.6824 0.142578 12.6914 0.142578ZM18.8076 14.7051C18.0073 17.3236 15.5719 19.2284 12.6914 19.2285C9.8108 19.2285 7.37445 17.3237 6.57422 14.7051C6.91477 15.0433 7.34041 15.3435 7.82227 15.5986C9.08337 16.2663 10.8057 16.6699 12.6914 16.6699C14.5769 16.6699 16.2985 16.2662 17.5596 15.5986C18.0415 15.3435 18.467 15.0433 18.8076 14.7051ZM12.6914 3.29004C17.9616 3.29014 22.2341 7.56283 22.2344 12.833C22.2344 14.5537 21.2083 16.1461 19.4814 17.3203C18.6295 17.8995 17.613 18.3723 16.4814 18.7021C18.404 17.4578 19.6768 15.2936 19.6768 12.833C19.6765 8.97553 16.5489 5.84873 12.6914 5.84863C8.8338 5.84863 5.70631 8.97546 5.70605 12.833C5.70605 15.2936 6.97882 17.4578 8.90137 18.7021C7.7696 18.3722 6.75239 17.8997 5.90039 17.3203C4.17354 16.1461 3.14844 14.5537 3.14844 12.833C3.14869 7.56276 7.4211 3.29004 12.6914 3.29004ZM12.6914 6.43848C16.2229 6.43858 19.0857 9.30153 19.0859 12.833C19.0859 13.6478 18.4566 14.4559 17.2832 15.0771C16.6638 15.405 15.9125 15.6692 15.0713 15.8438C15.9589 15.141 16.5283 14.053 16.5283 12.833C16.5281 10.7142 14.8102 8.99717 12.6914 8.99707C10.5725 8.99707 8.85474 10.7142 8.85449 12.833C8.85449 14.053 9.42394 15.141 10.3115 15.8438C9.47011 15.6692 8.71819 15.4051 8.09863 15.0771C6.9253 14.4559 6.29688 13.6478 6.29688 12.833C6.29713 9.30147 9.15981 6.43848 12.6914 6.43848ZM66.0381 7.63965C63.716 7.63965 61.7971 9.86055 61.5615 14.3027L69.9756 13.7979C69.7736 9.92807 68.3599 7.63997 66.0381 7.63965ZM160.092 7.63965C157.77 7.63965 155.851 9.86055 155.615 14.3027L164.029 13.7979C163.827 9.92807 162.414 7.63997 160.092 7.63965Z" fill="#1F4451"/>
</svg>
